<svg id="Laag_1" data-name="Laag 1" xmlns="http://www.w3.org/2000/svg" xmlns:xlink="http://www.w3.org/1999/xlink" viewBox="0 0 129.81 153.11"><defs><style>.cls-1{fill:url(#Naamloos_verloop);}.cls-2{opacity:0.5;}.cls-3{fill:#fff;}</style><linearGradient id="Naamloos_verloop" x1="33.98" y1="1102.59" x2="163.79" y2="1102.59" gradientTransform="translate(-33.98 -1026.04)" gradientUnits="userSpaceOnUse"><stop offset="0" stop-color="#fff599"/><stop offset="1" stop-color="#ffd900"/></linearGradient></defs><path class="cls-1" d="M124.08,115.66A15.4,15.4,0,0,0,104,113c-6.35,4.19-14.72,6.38-22.57-1.9-8.62-9.09-7.66-18.72-5.11-25.49a14.83,14.83,0,0,1,11.59-9.24c6.92-1.14,16.81-5.71,16-22.54-.46-10.12,8-15.35,18.32-18a10.06,10.06,0,0,0,4-17.42C105.49.56,75-6.29,43.82,6.81A68.7,68.7,0,0,0,7.45,42.32c-24.78,56.31,15.8,110.79,69.1,110.79a76.25,76.25,0,0,0,45.06-14.67,15.58,15.58,0,0,0,3.4-21.77h0c-.27-.37-.56-.73-.86-1.07Z" transform="translate(0 0)"/><g class="cls-2"><path class="cls-3" d="M80,4.39c-2-.17-4-.31-6-.31A69.16,69.16,0,0,0,6.42,87.66c1.07,5.07,8.59,4.43,8.6-.75v-.2C15,54.83,28.51,21,80,4.39Z" transform="translate(0 0)"/></g></svg>