<?xml version="1.0" encoding="utf-8"?>
<!-- Generator: Adobe Illustrator 25.0.1, SVG Export Plug-In . SVG Version: 6.00 Build 0)  -->
<svg version="1.1" id="Laag_1" xmlns="http://www.w3.org/2000/svg" xmlns:xlink="http://www.w3.org/1999/xlink" x="0px" y="0px"
	 viewBox="0 0 1473 320" style="enable-background:new 0 0 1473 320;" xml:space="preserve">
<style type="text/css">
	.st0{fill:#007ADF;}
</style>
<path class="st0" d="M1473,64.3c-3.1,0.7-6.2,1.4-9.3,2.1c-25.2,6.1-49.9,14.1-73.8,23.8c-25,10.2-49,22.3-74.3,31.8
	c-35.9,13.6-74.4,24-113.1,22c-0.8,0-1.7-0.1-2.5-0.1c-80-5-160-59-240-74.7c-80-16.3-160,5.7-240,32c-80,26.7-160,58.7-240,48
	C400,139,320,85,240,64S80,53,40,58.7L0,64v256h40c40,0,120,0,200,0s160,0,240,0s160,0,240,0s160,0,240,0s160,0,240,0s160,0,200,0
	h40h33V64.3z"/>
</svg>
