<svg xmlns="http://www.w3.org/2000/svg" viewBox="0 0 682.22 428.58"><defs><style>.cls-1{fill:#ebebeb;}.cls-2{fill:#f5f5f5;}.cls-3{fill:#e0e0e0;}.cls-4{fill:#fff;}.cls-5{fill:#263238;}.cls-6{fill:#455a64;}.cls-7{fill:#fafafa;}.cls-8{fill:#007adf;}.cls-9{opacity:0.2;}.cls-10{fill:#b78876;}.cls-11{fill:#aa6550;}.cls-12{fill:#ffbe9d;}.cls-13{fill:#eb996e;}.cls-14{fill:none;stroke:#fff;stroke-miterlimit:10;stroke-width:0.05px;}.cls-15{fill:#e07646;}</style></defs><g id="Background_Complete" data-name="Background Complete"><path class="cls-1" d="M562.66,417.75a8,8,0,0,0,4.73-7.35,7.47,7.47,0,1,0-14.9-.07,7.94,7.94,0,0,0,4.75,7.42c-11.46,1.72-10.94,14.18-10.94,14.18l27.1.12S574,419.46,562.66,417.75Z" transform="translate(-35.58 -34.24)"/><path class="cls-1" d="M82.24,135.86a5.94,5.94,0,0,0,3.55-5.51,5.6,5.6,0,1,0-11.18,0,6,6,0,0,0,3.56,5.56c-8.6,1.3-8.21,10.65-8.21,10.65l20.34.09S90.76,137.15,82.24,135.86Z" transform="translate(-35.58 -34.24)"/><path class="cls-2" d="M565.57,103.58A24.83,24.83,0,1,1,540.19,79.3,24.83,24.83,0,0,1,565.57,103.58Z" transform="translate(-35.58 -34.24)"/><path class="cls-3" d="M535.5,97.5a2.75,2.75,0,0,0-3.83-.35,4.7,4.7,0,0,0-1.9,3.47,4.82,4.82,0,0,0-2.16-3.38,2.79,2.79,0,0,0-3.84.53,3.67,3.67,0,0,0-.51,2.63,5.05,5.05,0,0,0,1,2.53c2,2.38,3.15,2.79,5.75,4.46,2.5-1.79,3.31-2.23,5.24-4.71a5.09,5.09,0,0,0,.87-2.57A3.71,3.71,0,0,0,535.5,97.5Z" transform="translate(-35.58 -34.24)"/><path class="cls-3" d="M557.43,97a2.77,2.77,0,0,0-3.84-.35,4.73,4.73,0,0,0-1.9,3.47,4.84,4.84,0,0,0-2.15-3.38,2.8,2.8,0,0,0-3.85.53,3.67,3.67,0,0,0-.51,2.63,5.14,5.14,0,0,0,1,2.53c2.05,2.38,3.15,2.79,5.75,4.46,2.51-1.78,3.31-2.24,5.24-4.71a5.1,5.1,0,0,0,.88-2.57A3.71,3.71,0,0,0,557.43,97Z" transform="translate(-35.58 -34.24)"/><path class="cls-4" d="M549.1,109.78a8.2,8.2,0,0,1-16.35.09Z" transform="translate(-35.58 -34.24)"/><circle class="cls-2" cx="655.33" cy="377.71" r="25.43" transform="matrix(0.16, -0.99, 0.99, 0.16, 142.7, 930.45)"/><path class="cls-3" d="M646.89,370.41c1-.06,1.82,1,1.91,2.42s-.63,2.57-1.59,2.63-1.82-1-1.91-2.42S645.93,370.47,646.89,370.41Z" transform="translate(-35.58 -34.24)"/><path class="cls-3" d="M649.26,364c0,.37-2.13.25-4.46,1.08s-3.9,2.16-4.17,1.9,1.07-2.19,3.76-3.1S649.37,363.7,649.26,364Z" transform="translate(-35.58 -34.24)"/><path class="cls-3" d="M667.7,374.38c-.27.23-1.64-1.24-3.83-1.47s-3.84.9-4.06.62c-.11-.12.16-.61.89-1.11a5.1,5.1,0,0,1,6.37.69C667.68,373.75,667.83,374.29,667.7,374.38Z" transform="translate(-35.58 -34.24)"/><path class="cls-3" d="M669.89,370.13c-.2.32-2.26-.76-5-.84s-4.9.77-5.07.44,2-1.86,5.12-1.72S670.12,369.89,669.89,370.13Z" transform="translate(-35.58 -34.24)"/><path class="cls-3" d="M668.09,377.2c.11,0,.14,2.11-1.6,4.89a12.89,12.89,0,0,1-21.61.68c-1.91-2.67-2-4.79-1.9-4.78s.65,1.89,2.61,4.22a12.48,12.48,0,0,0,20.16-.63C667.55,379.12,667.86,377.14,668.09,377.2Z" transform="translate(-35.58 -34.24)"/><circle class="cls-2" cx="60.82" cy="229.05" r="25.24" transform="translate(-205.24 139.65) rotate(-61.67)"/><path class="cls-3" d="M52.11,222.69c1-.08,1.82,1,1.94,2.36s-.57,2.56-1.53,2.64-1.82-1-1.94-2.35S51.15,222.77,52.11,222.69Z" transform="translate(-35.58 -34.24)"/><path class="cls-3" d="M54.33,216.3c0,.22-2.13,0-4.5.91s-3.85,2.38-4,2.23,1.19-2,3.76-2.91S54.4,216.13,54.33,216.3Z" transform="translate(-35.58 -34.24)"/><path class="cls-3" d="M68.16,222.36c-1,0-1.78,1-1.84,2.44s.68,2.54,1.63,2.58,1.79-1.06,1.84-2.44S69.12,222.4,68.16,222.36Z" transform="translate(-35.58 -34.24)"/><path class="cls-3" d="M65.68,216.07c-.07-.17,2.15-.82,4.75,0s4,2.65,3.88,2.75-1.69-1.3-4.1-2.06S65.71,216.28,65.68,216.07Z" transform="translate(-35.58 -34.24)"/><path class="cls-3" d="M73.27,228.8a3.94,3.94,0,0,1-.17,1.35,11.19,11.19,0,0,1-1.47,3.42,13.46,13.46,0,0,1-3.85,4,12.24,12.24,0,0,1-13,.68,13.47,13.47,0,0,1-4.24-3.57,11.18,11.18,0,0,1-1.81-3.25,3.8,3.8,0,0,1-.32-1.33,19,19,0,0,0,2.53,4.26,13.61,13.61,0,0,0,4.15,3.3,12.61,12.61,0,0,0,6.27,1.41A12.45,12.45,0,0,0,67.41,237a13.43,13.43,0,0,0,3.79-3.71A18.49,18.49,0,0,0,73.27,228.8Z" transform="translate(-35.58 -34.24)"/></g><g id="Character_3" data-name="Character 3"><path class="cls-3" d="M615.16,170.59a75.36,75.36,0,0,0-61.35,31.55L527,205.94l15,21.43a75.46,75.46,0,1,0,73.12-56.78Z" transform="translate(-35.58 -34.24)"/><path class="cls-5" d="M601.31,139.23c11.05-14.56,22.71-12.5,30.8-9a22.24,22.24,0,0,1,13,21.18c-.15,2.33-.64,4.78.3,6.91,1.52,3.42,6,4.39,8.51,7.12,3.51,3.74,2.73,9.66,1.55,14.64S653,190.78,656,195c2.68,3.85,7.8,4.88,12,6.93a22.09,22.09,0,0,1,11.68,13.75,18.82,18.82,0,0,1-4,17.37c-4.1,4.48-10.27,6.46-16.27,7.34A59.94,59.94,0,0,1,590.79,178" transform="translate(-35.58 -34.24)"/><path class="cls-6" d="M669.36,234.53s.38-.36,1-1.13a10.08,10.08,0,0,0,2-3.76,14,14,0,0,0,.06-6.69,16.19,16.19,0,0,0-4.11-7.82,19.56,19.56,0,0,0-4-3.3,32.46,32.46,0,0,0-5.09-2.46,37.93,37.93,0,0,1-5.57-2.64,17.47,17.47,0,0,1-4.82-4.47A23,23,0,0,1,644.51,189a35.75,35.75,0,0,1,.63-7.4c.45-2.47,1.08-4.93,1.56-7.43a28.52,28.52,0,0,0,.61-5.29,14.42,14.42,0,0,0-1.16-5c-.65-1.61-1.4-3.17-2-4.79a23,23,0,0,1-1-5c-.2-1.67-.2-3.32-.39-4.88a27.6,27.6,0,0,0-.89-4.59,24.18,24.18,0,0,0-3.7-7.9l0,0h0a16.41,16.41,0,0,0-11.43-7.36,15.63,15.63,0,0,0-10.38,2.17,16.61,16.61,0,0,0-5.08,4.72c-.92,1.33-1.26,2.13-1.31,2.1a11,11,0,0,1,1.15-2.21,16.39,16.39,0,0,1,5.05-4.92,15.94,15.94,0,0,1,10.64-2.36,16.89,16.89,0,0,1,11.88,7.54l0,0a25.11,25.11,0,0,1,3.87,8.12,30,30,0,0,1,.93,4.69c.2,1.63.2,3.25.4,4.88a22.31,22.31,0,0,0,1,4.84c.59,1.58,1.34,3.13,2,4.77a15.21,15.21,0,0,1,1.22,5.26,28.34,28.34,0,0,1-.62,5.44c-.49,2.54-1.11,5-1.56,7.43a34.46,34.46,0,0,0-.63,7.25,22.41,22.41,0,0,0,4.1,12.88,16.89,16.89,0,0,0,4.62,4.32,37.42,37.42,0,0,0,5.46,2.63,32.57,32.57,0,0,1,5.16,2.54,20.05,20.05,0,0,1,4.09,3.43,16.66,16.66,0,0,1,4.12,8.08,14.1,14.1,0,0,1-.18,6.86,10,10,0,0,1-2.13,3.78A6.7,6.7,0,0,1,669.36,234.53Z" transform="translate(-35.58 -34.24)"/><path class="cls-7" d="M628.91,217.43a12.79,12.79,0,0,1,2.54-2.56,12.56,12.56,0,0,1,2.88-2.16,12.79,12.79,0,0,1-2.54,2.56A12.33,12.33,0,0,1,628.91,217.43Z" transform="translate(-35.58 -34.24)"/><path class="cls-8" d="M625.29,208.79,592,212.85s-26.82,4.88-32.21,25c-3.73,13.87-11.44,39.71-15.85,54.38a13.74,13.74,0,0,0,6.82,16.15h0a13.74,13.74,0,0,0,18.95-6.72l14.58-33.55s5.14,11.72,4.85,17.27-11.88,25.91-11.88,25.91h0c24.63,14.12,49.65,12.34,69.11,3.51h0l-.93-53s9.17,47.31,27.72,43.71c15.56-3,5.32-33.34,0-44.94-6.77-14.79-15.62-35.89-21.18-41C637,205.9,625.29,208.79,625.29,208.79Z" transform="translate(-35.58 -34.24)"/><g class="cls-9"><path d="M594.51,215.52a39.89,39.89,0,0,1-7.6,8.19A21.41,21.41,0,0,1,580.7,228a7.74,7.74,0,0,1-7.22-.53c-2.05-1.47-2.85-4.68-1.26-6.63,1-1.29,2.79-1.76,4.4-2.16l16.2-4" transform="translate(-35.58 -34.24)"/></g><path class="cls-5" d="M552,277.32a11.37,11.37,0,0,1,9.76-2.5,31.17,31.17,0,0,0-5,.61A32.73,32.73,0,0,0,552,277.32Z" transform="translate(-35.58 -34.24)"/><path class="cls-5" d="M556.4,272.72A5.15,5.15,0,0,1,560,272a5.07,5.07,0,0,1,3.35,1.36,22.17,22.17,0,0,0-3.4-.84A24.5,24.5,0,0,0,556.4,272.72Z" transform="translate(-35.58 -34.24)"/><g class="cls-9"><path d="M563,275.2a9.32,9.32,0,0,0-9.23.64c-.56.38-1.26.84-1.85.5s-.52-1.17-.21-1.74c.73-1.36,2.42-1.88,4-2a16,16,0,0,1,8.16,1.31" transform="translate(-35.58 -34.24)"/></g><g class="cls-9"><path d="M617.21,252.79c-1.76,3.53-6.81,5.75-9.17,9.6-2,3.26-2.74,7.1-3.94,10.72A43.48,43.48,0,0,1,584.52,297,61,61,0,0,0,589,286.13a13.78,13.78,0,0,0-1-6.73c1.14-3.51,6.15-8.36,8.45-11.27a66.55,66.55,0,0,1,8.91-9.83,22.27,22.27,0,0,1,11.88-5.51" transform="translate(-35.58 -34.24)"/></g><path class="cls-7" d="M631.39,289.88a67.06,67.06,0,0,1,5.89-10.22,32.26,32.26,0,0,1-2.72,5.24A32.8,32.8,0,0,1,631.39,289.88Z" transform="translate(-35.58 -34.24)"/><path class="cls-5" d="M658.43,275.75a15.73,15.73,0,0,1-.07,2.86c-.09,1.76-.28,4.18-.17,6.85.19,5.37,2.27,9.34,2.06,9.4a2.34,2.34,0,0,1-.39-.66,17.62,17.62,0,0,1-.84-1.93,22.13,22.13,0,0,1-1.35-6.79,44.34,44.34,0,0,1,.33-6.9A16.09,16.09,0,0,1,658.43,275.75Z" transform="translate(-35.58 -34.24)"/><path class="cls-7" d="M613.22,298.28a25.66,25.66,0,0,1,6.22,8.51c-.13.07-1.38-1.93-3.1-4.27S613.11,298.38,613.22,298.28Z" transform="translate(-35.58 -34.24)"/><path class="cls-7" d="M630.2,302.16a15.57,15.57,0,0,1,3.7,1.54,15.34,15.34,0,0,1,3.46,2,15.37,15.37,0,0,1-3.7-1.55A15.84,15.84,0,0,1,630.2,302.16Z" transform="translate(-35.58 -34.24)"/><path class="cls-7" d="M619,286.11a10.47,10.47,0,0,1-3-2.64,10.28,10.28,0,0,1-2.19-3.32,29.59,29.59,0,0,1,2.59,3A28.29,28.29,0,0,1,619,286.11Z" transform="translate(-35.58 -34.24)"/><path class="cls-7" d="M598.33,299.81c-.09-.12,1.41-1.33,3.06-3s2.84-3.19,3-3.1a16,16,0,0,1-6,6.11Z" transform="translate(-35.58 -34.24)"/><path class="cls-7" d="M587.4,305.4a28.15,28.15,0,0,1,5.63,5.12,28.15,28.15,0,0,1-5.63-5.12Z" transform="translate(-35.58 -34.24)"/><path class="cls-7" d="M608.11,267.05a20.6,20.6,0,0,1,3.74-2.61,19.75,19.75,0,0,1,4-2.16,39.27,39.27,0,0,1-7.76,4.77Z" transform="translate(-35.58 -34.24)"/><path class="cls-7" d="M625.84,260.83a19,19,0,0,1,2.15,3.85,18.7,18.7,0,0,1,1.68,4.08,19,19,0,0,1-2.15-3.85A18.7,18.7,0,0,1,625.84,260.83Z" transform="translate(-35.58 -34.24)"/><path class="cls-7" d="M638,258.19a17,17,0,0,1,1.9-3.69,16.63,16.63,0,0,1,2.35-3.42,16.73,16.73,0,0,1-1.9,3.69A16.42,16.42,0,0,1,638,258.19Z" transform="translate(-35.58 -34.24)"/><path class="cls-7" d="M623.82,245.9c.07-.14,1.74.6,3.93,1.11s4,.61,4,.77a12.26,12.26,0,0,1-7.94-1.88Z" transform="translate(-35.58 -34.24)"/><path class="cls-7" d="M632.18,232a13.83,13.83,0,0,1-.53-3.77,13.42,13.42,0,0,1,0-3.8,14.57,14.57,0,0,1,.52,3.77A14.16,14.16,0,0,1,632.18,232Z" transform="translate(-35.58 -34.24)"/><path class="cls-7" d="M650.81,259.85a19.81,19.81,0,0,1,1.36-4.27A19.41,19.41,0,0,1,654,251.5a38.66,38.66,0,0,1-3.19,8.35Z" transform="translate(-35.58 -34.24)"/><path class="cls-7" d="M653.49,270a9.8,9.8,0,0,1,1.93,3.59,9.55,9.55,0,0,1,.78,4c-.15,0-.52-1.74-1.27-3.83S653.36,270.05,653.49,270Z" transform="translate(-35.58 -34.24)"/><path class="cls-7" d="M591.91,233.13a14.89,14.89,0,0,1,3.45,1.82,14.71,14.71,0,0,1,3.17,2.26,14.89,14.89,0,0,1-3.45-1.82A14.64,14.64,0,0,1,591.91,233.13Z" transform="translate(-35.58 -34.24)"/><path class="cls-7" d="M582.24,249.52c-.11-.12,1.28-1.45,2.64-3.37s2.19-3.65,2.33-3.59a9.7,9.7,0,0,1-1.91,3.89A9.85,9.85,0,0,1,582.24,249.52Z" transform="translate(-35.58 -34.24)"/><path class="cls-7" d="M567.84,250.21A14.21,14.21,0,0,1,571.4,253a14.56,14.56,0,0,1,2.93,3.44,29.53,29.53,0,0,1-3.29-3.07A30.82,30.82,0,0,1,567.84,250.21Z" transform="translate(-35.58 -34.24)"/><path class="cls-7" d="M571.3,236.19a50.49,50.49,0,0,1,7.38-7.14,24.91,24.91,0,0,1-3.51,3.76A25.9,25.9,0,0,1,571.3,236.19Z" transform="translate(-35.58 -34.24)"/><path class="cls-7" d="M562.39,262.83a18.56,18.56,0,0,1-1.55-4.09,18.07,18.07,0,0,1-1.06-4.25,18.31,18.31,0,0,1,1.55,4.09A18.56,18.56,0,0,1,562.39,262.83Z" transform="translate(-35.58 -34.24)"/><path class="cls-7" d="M569.28,271.39a21.33,21.33,0,0,1,.17-4.69,21.84,21.84,0,0,1,.69-4.65,20.61,20.61,0,0,1-.17,4.69A21.84,21.84,0,0,1,569.28,271.39Z" transform="translate(-35.58 -34.24)"/><path class="cls-10" d="M619.09,232a9.54,9.54,0,0,0-13.33,2.28l-8.7,12.36L549.9,284.27a13.52,13.52,0,1,0,18.56,19.54L607,260.32l5-3.83,5.85-4.24,1.33-12.73s3.52,1.56,6.26,2.82c4.33,2,5.77-1.63,5.77-1.63Z" transform="translate(-35.58 -34.24)"/><path class="cls-11" d="M619.16,240.18c-.06,0-.34-.29-.8-.8a5.29,5.29,0,0,0-2.08-1.51,2.71,2.71,0,0,0-2.38.33c-.53.37-.64.81-.73.78s-.07-.52.49-1.07a2.87,2.87,0,0,1,2.79-.53,4.61,4.61,0,0,1,2.19,1.77C619.05,239.74,619.22,240.14,619.16,240.18Z" transform="translate(-35.58 -34.24)"/><path class="cls-11" d="M613,243.58c-.05,0,.12-.38.59-.76a3.54,3.54,0,0,1,4.38,0c.47.38.63.72.58.76s-.31-.19-.79-.45a3.92,3.92,0,0,0-4,0C613.3,243.39,613,243.63,613,243.58Z" transform="translate(-35.58 -34.24)"/><path class="cls-10" d="M653.26,229.48l3.31,3.58s1.1,50.71,3,57.6,13.23,18.46,19.29,9.09-9.09-69.17-9.09-69.17-4.14-13.78-4.41-17.08Z" transform="translate(-35.58 -34.24)"/><path class="cls-6" d="M660.85,200.11l-1.3,35a7.3,7.3,0,0,1-3.63,6l-10.55,6.11a4.37,4.37,0,0,1-6.56-3.79V211.06a5.06,5.06,0,0,1,2.61-4.43l15.79-8.76A2.46,2.46,0,0,1,660.85,200.11Z" transform="translate(-35.58 -34.24)"/><path class="cls-7" d="M648.72,209.35a2.33,2.33,0,1,0,3.12-1.07A2.33,2.33,0,0,0,648.72,209.35Z" transform="translate(-35.58 -34.24)"/><path class="cls-10" d="M665.39,213.5s-7.82-10.83-9.55-10.74-10.13,5.11-9.76,6.21,2.1,1.73,3.65,1,4.29-3.37,4.92-2.83,2.47,2.47,2.47,2.47-7.72,3.93-8.3,5.47-2,4.29-.19,5.29c1.19.65,3.11-.09,3.84-3.19,0,0-1.46,4.47.79,5.56,2.43,1.18,3.17-1.3,5.14-3.74,1.64-2.05,2.39.56,2.39.56Z" transform="translate(-35.58 -34.24)"/><path class="cls-11" d="M659.47,213.59a10.21,10.21,0,0,1-1.43.14,7.42,7.42,0,0,0-3.14,1.13,7.5,7.5,0,0,0-2.31,2.42c-.44.75-.62,1.28-.7,1.25a2.62,2.62,0,0,1,.38-1.42,6.53,6.53,0,0,1,5.75-3.75A2.58,2.58,0,0,1,659.47,213.59Z" transform="translate(-35.58 -34.24)"/><path class="cls-10" d="M593.68,142.42v4.52l-.3,67.56c0,7.84,6.69,14.12,15.08,14.09h0c8.48,0,15.48-6.47,15.65-14.39.17-8.32.5-17.07.5-17.07s10.75-1.59,13.22-15.53c1.22-6.93,1.08-18.33.66-27.66a14.77,14.77,0,0,0-16-14.05Z" transform="translate(-35.58 -34.24)"/><path class="cls-5" d="M635.22,162.45a1.78,1.78,0,0,1-1.76,1.77,1.71,1.71,0,0,1-1.82-1.65,1.78,1.78,0,0,1,1.76-1.77A1.71,1.71,0,0,1,635.22,162.45Z" transform="translate(-35.58 -34.24)"/><path class="cls-5" d="M635.93,159.83c-.23.23-1.57-.8-3.5-.83s-3.36.91-3.56.67.13-.52.75-1a5,5,0,0,1,2.86-.83,4.74,4.74,0,0,1,2.78,1C635.85,159.3,636,159.72,635.93,159.83Z" transform="translate(-35.58 -34.24)"/><path class="cls-5" d="M617,162.12a1.79,1.79,0,0,1-1.76,1.78,1.72,1.72,0,0,1-1.82-1.65,1.79,1.79,0,0,1,1.76-1.78A1.72,1.72,0,0,1,617,162.12Z" transform="translate(-35.58 -34.24)"/><path class="cls-5" d="M617,159.85c-.23.23-1.57-.8-3.5-.83s-3.36.91-3.56.67.13-.52.76-1a4.91,4.91,0,0,1,2.86-.83,4.66,4.66,0,0,1,2.77,1C616.88,159.32,617.07,159.75,617,159.85Z" transform="translate(-35.58 -34.24)"/><path class="cls-5" d="M623.71,174.28a12.4,12.4,0,0,1,3.14-.51c.49,0,1-.13,1-.47a2.5,2.5,0,0,0-.3-1.46c-.44-1.2-.91-2.46-1.39-3.78-1.93-5.37-3.32-9.79-3.1-9.87s2,4.22,3.88,9.6c.47,1.32.91,2.59,1.33,3.8a2.8,2.8,0,0,1,.22,1.94,1.24,1.24,0,0,1-.82.7,3.35,3.35,0,0,1-.84.1A12.59,12.59,0,0,1,623.71,174.28Z" transform="translate(-35.58 -34.24)"/><path class="cls-11" d="M624.63,197.13A35.54,35.54,0,0,1,606,191.8s4.37,9.69,18.39,8.63Z" transform="translate(-35.58 -34.24)"/><path class="cls-11" d="M622.81,178.91a3.49,3.49,0,0,0-3.09-1.34,3.17,3.17,0,0,0-2.22,1.13,2,2,0,0,0-.19,2.3,2.35,2.35,0,0,0,2.52.69,7.41,7.41,0,0,0,2.49-1.43,2.29,2.29,0,0,0,.56-.56.65.65,0,0,0,0-.72" transform="translate(-35.58 -34.24)"/><path class="cls-5" d="M618,175.51c.31,0,.28,2.09,2,3.6s4,1.33,4,1.62c0,.13-.5.4-1.44.41a5.22,5.22,0,0,1-3.35-1.23,4.53,4.53,0,0,1-1.58-3C617.62,176,617.86,175.5,618,175.51Z" transform="translate(-35.58 -34.24)"/><path class="cls-5" d="M576.84,221.2a22,22,0,0,0,23.38-18.73,13.5,13.5,0,0,1,.64-2.8,20.7,20.7,0,0,0,.53-12.88c-.52-1.95-1.26-4.1-.38-5.91.65-1.32,2-2.11,3.11-3.08a13,13,0,0,0,4.12-8.74,22.61,22.61,0,0,0-1.6-9.7c-.63-1.7-1.4-3.57-.76-5.27a8.09,8.09,0,0,1,2.48-2.9,23,23,0,0,0,5-6.42c1.28-2.45,2.11-5.64-1.23-7.58a6.57,6.57,0,0,0-2.28-.78c-5.91-.91-13,0-16.91,4.62-3.22,3.79-3.68,9.13-4,14.1-1,15.65-26.89,44.71-16.88,66.14Z" transform="translate(-35.58 -34.24)"/><path class="cls-5" d="M617.59,152.3c-.2.52-2.12.24-4.39.47s-4.11.82-4.4.34c-.13-.23.2-.71,1-1.21a7.68,7.68,0,0,1,6.69-.62C617.27,151.63,617.68,152.05,617.59,152.3Z" transform="translate(-35.58 -34.24)"/><path class="cls-5" d="M635.32,154.23c-.35.43-1.67,0-3.27-.09s-2.95.24-3.26-.23c-.13-.22.09-.66.69-1.06a4.56,4.56,0,0,1,2.67-.67,4.48,4.48,0,0,1,2.59.93C635.29,153.57,635.47,154,635.32,154.23Z" transform="translate(-35.58 -34.24)"/><path class="cls-6" d="M688.68,163.9a2,2,0,1,1-2-2A2,2,0,0,1,688.68,163.9Z" transform="translate(-35.58 -34.24)"/><circle class="cls-6" cx="658.99" cy="129.66" r="1.96"/><path class="cls-6" d="M704.35,162.92a2,2,0,1,1-2.68-.72A2,2,0,0,1,704.35,162.92Z" transform="translate(-35.58 -34.24)"/><path class="cls-6" d="M694.69,141a1.44,1.44,0,0,1,.39,0l1.17,0c.26,0,.54,0,.86,0l1,.14,1.19.18,1.34.33a21.52,21.52,0,0,1,6.5,2.83,22.72,22.72,0,0,1,10.58,20.36c0,.53,0,1.07-.1,1.61l-.24,1.61a22.84,22.84,0,0,1-2.19,6.39,24.71,24.71,0,0,1-4.17,5.75,23.94,23.94,0,0,1-6,4.31,21.88,21.88,0,0,1-7.33,2.25,14.12,14.12,0,0,1-2,.17,18.69,18.69,0,0,1-2,0,24.23,24.23,0,0,1-4-.5,23.35,23.35,0,0,1-7.88-3.32l.24,0-8,3.23-.48.19.14-.5c.81-2.94,1.59-5.81,2.36-8.58l0,.21a23,23,0,0,1-4.29-9.8,21.39,21.39,0,0,1-.31-5,17.26,17.26,0,0,1,.23-2.41l.18-1.18c.07-.39.19-.76.28-1.14a22.94,22.94,0,0,1,9-13.05,21.73,21.73,0,0,1,5.33-2.81l1.2-.43,1.14-.29,1-.26c.33-.06.66-.1,1-.14.6-.08,1.14-.18,1.6-.21l1.18,0h1l-.25,0-.71.06-1.17.08c-.47,0-1,.15-1.6.24a22.83,22.83,0,0,0-18.25,16.93c-.08.37-.2.73-.27,1.11s-.11.77-.17,1.16a15.36,15.36,0,0,0-.21,2.37,20.57,20.57,0,0,0,.32,4.92,22.76,22.76,0,0,0,4.23,9.59l.07.1,0,.11c-.76,2.77-1.54,5.64-2.34,8.59L674,186l8-3.23.13,0,.11.08a22.89,22.89,0,0,0,7.7,3.24,24.24,24.24,0,0,0,3.87.49,17.71,17.71,0,0,0,1.93,0,15.06,15.06,0,0,0,1.91-.16,21.37,21.37,0,0,0,7.17-2.19,23.4,23.4,0,0,0,5.89-4.22,24,24,0,0,0,4.1-5.61,22.65,22.65,0,0,0,2.16-6.25l.24-1.58c.08-.53.07-1.06.11-1.58a24.27,24.27,0,0,0,0-3.08,22.64,22.64,0,0,0-10.25-17,22,22,0,0,0-6.39-2.88l-1.32-.35-1.19-.19-1-.17-.85-.06-1.16-.09A2.33,2.33,0,0,1,694.69,141Z" transform="translate(-35.58 -34.24)"/></g><g id="Character_2" data-name="Character 2"><path class="cls-3" d="M248.84,324.1l-35.31,5.95a75.14,75.14,0,1,0,18.83,24.55Z" transform="translate(-35.58 -34.24)"/><path class="cls-5" d="M94.1,308a2,2,0,1,0,2-2A2,2,0,0,0,94.1,308Z" transform="translate(-35.58 -34.24)"/><path class="cls-5" d="M86.26,308a2,2,0,1,0,2-2A2,2,0,0,0,86.26,308Z" transform="translate(-35.58 -34.24)"/><path class="cls-5" d="M78.43,307a2,2,0,1,0,2.68-.72A2,2,0,0,0,78.43,307Z" transform="translate(-35.58 -34.24)"/><path class="cls-5" d="M88.1,285.08a1.87,1.87,0,0,1-.4.05l-1.16.08c-.25,0-.54,0-.85.07l-1,.17-1.18.19-1.33.35a21.94,21.94,0,0,0-6.38,2.88,22.69,22.69,0,0,0-10.26,17,22.55,22.55,0,0,0,0,3.08c0,.52,0,1,.1,1.57s.17,1.06.25,1.59A22.65,22.65,0,0,0,68,318.38a22.46,22.46,0,0,0,10,9.83,21.44,21.44,0,0,0,7.17,2.19,15.22,15.22,0,0,0,1.91.16,17.76,17.76,0,0,0,1.93,0,22,22,0,0,0,3.87-.49,22.8,22.8,0,0,0,7.71-3.23l.11-.08.13,0,8,3.23-.34.3c-.81-2.94-1.59-5.81-2.34-8.58l0-.12.08-.09A22.61,22.61,0,0,0,110.4,312a20.63,20.63,0,0,0,.33-4.93,15.47,15.47,0,0,0-.22-2.37c-.05-.38-.11-.77-.17-1.15s-.18-.75-.27-1.12a22.83,22.83,0,0,0-18.25-16.93c-.6-.08-1.13-.2-1.59-.24l-1.17-.08-.72-.05-.24,0h.24l.72,0,1.18,0c.47,0,1,.13,1.61.21.3,0,.62.08,1,.14l1,.26L95,286l1.2.43a22.09,22.09,0,0,1,5.33,2.81,22.94,22.94,0,0,1,9,13.05c.09.38.21.75.28,1.14l.18,1.17a14.92,14.92,0,0,1,.23,2.42,20.4,20.4,0,0,1-.31,5,23,23,0,0,1-4.28,9.8l0-.21,2.36,8.58.13.49-.47-.19-8-3.22.24,0A23.14,23.14,0,0,1,89,331.11a18.46,18.46,0,0,1-2,0,14.27,14.27,0,0,1-2-.17,21.75,21.75,0,0,1-7.32-2.25,24,24,0,0,1-6-4.32,24.66,24.66,0,0,1-4.17-5.74,23.25,23.25,0,0,1-2.18-6.39l-.24-1.62c-.08-.53-.07-1.07-.11-1.6a25.17,25.17,0,0,1,.06-3.14,23.66,23.66,0,0,1,3.81-10.68,23.26,23.26,0,0,1,6.72-6.54,21.59,21.59,0,0,1,6.49-2.83l1.34-.34,1.2-.17,1-.14c.31,0,.6,0,.86,0l1.16,0Z" transform="translate(-35.58 -34.24)"/><path class="cls-5" d="M172.55,271.22a12,12,0,0,1,21.6-.72c1.24,2.35,1.74,5.14,3.54,7.1a7,7,0,0,0,9.05.85,6.13,6.13,0,0,1-3.82,7.06l4.42.45c-2.39,5.21-8.92,7.59-14.57,6.57s-10.45-4.75-14.29-9" transform="translate(-35.58 -34.24)"/><path class="cls-5" d="M172.58,271.3l13.64,4.46A26.54,26.54,0,0,1,196.73,289c.64,1.84,1.07,3.76,1.88,5.53a8.22,8.22,0,0,0,3.84,4.24c1.31.58,2.8.65,4.14,1.15a7.55,7.55,0,0,1,4.58,5.28,9.15,9.15,0,0,1-1.23,7c-.65,1-1.51,2-1.57,3.23a8.7,8.7,0,0,0,.5,2.4A6.6,6.6,0,0,1,198,324.25c-.87,2-2,4.07-4,5s-4.89.09-5.3-2.05a5.22,5.22,0,0,1-9.92-1.88l-37.38-40.78C147,269.63,168.82,271,172.58,271.3Z" transform="translate(-35.58 -34.24)"/><path class="cls-12" d="M178.91,285.48a4.64,4.64,0,0,1,4.17,4.71h0L180.44,353c-.1,7.42-13.59,16.18-21.55,16h0c-8-.17-5.67-8.68-5.79-15.73-.19-11.79-.19-16.21-.19-16.15s-10.16-1.68-12.26-14.89c-1.05-6.58-.72-17.36-.16-26.16.5-7.93,5.77-17.66,13.69-16.83Z" transform="translate(-35.58 -34.24)"/><path class="cls-5" d="M143.93,304.62a1.69,1.69,0,0,0,1.64,1.71,1.62,1.62,0,0,0,1.75-1.53,1.69,1.69,0,0,0-1.63-1.71A1.63,1.63,0,0,0,143.93,304.62Z" transform="translate(-35.58 -34.24)"/><path class="cls-5" d="M142.83,301.67c.21.22,1.5-.73,3.33-.72s3.17.91,3.37.69-.12-.5-.7-.92a4.75,4.75,0,0,0-2.7-.83,4.5,4.5,0,0,0-2.65.85C142.92,301.17,142.73,301.57,142.83,301.67Z" transform="translate(-35.58 -34.24)"/><path class="cls-5" d="M161.81,304.62a1.69,1.69,0,0,0,1.64,1.71,1.62,1.62,0,0,0,1.75-1.53,1.7,1.7,0,0,0-1.64-1.71A1.63,1.63,0,0,0,161.81,304.62Z" transform="translate(-35.58 -34.24)"/><path class="cls-5" d="M160.81,302c.21.22,1.5-.73,3.33-.72s3.17.91,3.36.69-.11-.5-.7-.92a4.69,4.69,0,0,0-2.69-.83,4.57,4.57,0,0,0-2.65.85C160.9,301.51,160.71,301.91,160.81,302Z" transform="translate(-35.58 -34.24)"/><path class="cls-5" d="M154.17,315.54a12.33,12.33,0,0,0-3-.54c-.46,0-.91-.14-1-.45a2.33,2.33,0,0,1,.31-1.38l1.38-3.55c1.92-5.05,3.3-9.2,3.1-9.28s-1.93,4-3.84,9c-.46,1.24-.91,2.43-1.33,3.57a2.7,2.7,0,0,0-.24,1.82,1.22,1.22,0,0,0,.77.69,3.55,3.55,0,0,0,.79.11A12.54,12.54,0,0,0,154.17,315.54Z" transform="translate(-35.58 -34.24)"/><path class="cls-13" d="M152.91,337.12a33.74,33.74,0,0,0,17.75-4.72s-4.31,9.08-17.57,7.84Z" transform="translate(-35.58 -34.24)"/><path class="cls-13" d="M155,319.94a3.29,3.29,0,0,1,3-1.23,3,3,0,0,1,2.08,1.12,1.89,1.89,0,0,1,.14,2.17,2.2,2.2,0,0,1-2.39.6,6.73,6.73,0,0,1-2.34-1.39,1.78,1.78,0,0,1-.52-.54.59.59,0,0,1,0-.67" transform="translate(-35.58 -34.24)"/><path class="cls-5" d="M159.56,316.8c-.3,0-.31,2-2,3.37s-3.81,1.19-3.82,1.46.47.39,1.36.41a5,5,0,0,0,3.2-1.11,4.32,4.32,0,0,0,1.55-2.82C159.91,317.28,159.69,316.79,159.56,316.8Z" transform="translate(-35.58 -34.24)"/><path class="cls-5" d="M160,298.82c.18.49,2,.26,4.15.52s3.88.84,4.16.39c.13-.21-.17-.68-.87-1.16a7,7,0,0,0-3.09-1.07,7,7,0,0,0-3.25.38C160.31,298.19,159.91,298.58,160,298.82Z" transform="translate(-35.58 -34.24)"/><path class="cls-5" d="M143.51,296.39c.32.42,1.58,0,3.09,0s2.8.28,3.1-.16c.13-.21-.08-.62-.64-1a4.51,4.51,0,0,0-5,.16C143.54,295.76,143.36,296.19,143.51,296.39Z" transform="translate(-35.58 -34.24)"/><path class="cls-12" d="M181.62,306.62a3.33,3.33,0,0,1,3.46.17,6.13,6.13,0,0,1-3.87,11.38" transform="translate(-35.58 -34.24)"/><path class="cls-5" d="M160.78,274.84c-4.83.16-8.49,1.63-12.73,3.94A18.39,18.39,0,0,0,139,289.55a3.79,3.79,0,0,0,.11,3,2.91,2.91,0,0,0,3.63.78,8.55,8.55,0,0,0,3-2.72,5.67,5.67,0,0,0,11-.12c0,2.54,2.57,4.63,5.11,4.54a6.54,6.54,0,0,0,5.64-4.44,16.45,16.45,0,0,0,2.33,6.45c1.36,1.87,3.8,3.16,6,2.44-.31,2-.61,4.05.09,5.91s2.78,3.38,4.67,2.74,2.55-2.8,3-4.69a44.25,44.25,0,0,0,1.42-11.08,16.25,16.25,0,0,0-13.13-16.45,43.25,43.25,0,0,0-11.53-1" transform="translate(-35.58 -34.24)"/><path class="cls-13" d="M182.54,314.23c0-.09.52.11,1.16-.18a2.29,2.29,0,0,0,1.13-2.26,2.32,2.32,0,0,0-1.41-2.12c-.66-.27-1.15-.14-1.18-.24s.45-.42,1.33-.22a2.42,2.42,0,0,1,1.29.81,2.92,2.92,0,0,1,.66,1.74,2.62,2.62,0,0,1-1.66,2.75C183,314.74,182.47,314.28,182.54,314.23Z" transform="translate(-35.58 -34.24)"/><ellipse class="cls-8" cx="147.36" cy="283.82" rx="1.73" ry="1.72"/><path class="cls-8" d="M172.76,270.62a5.37,5.37,0,0,1,2.15-.24,11.13,11.13,0,0,1,8.82,5.08,5.06,5.06,0,0,1,.86,2c-.09,0-.41-.72-1.17-1.78a12.15,12.15,0,0,0-8.53-4.91C173.59,270.62,172.77,270.72,172.76,270.62Z" transform="translate(-35.58 -34.24)"/><path class="cls-6" d="M179.69,270.63s0-.14-.05-.41a3.14,3.14,0,0,1,.25-1.18,4.84,4.84,0,0,1,3.42-2.65c1.9-.52,4.29.45,5.95,2.28a13.15,13.15,0,0,1,2.16,3.22c.59,1.2,1.07,2.49,1.57,3.79a24.38,24.38,0,0,0,1.7,3.68,10.66,10.66,0,0,0,2.41,2.81,6.28,6.28,0,0,0,3,1.36,5.19,5.19,0,0,0,2.83-.39,6.09,6.09,0,0,0,3-2.9,10.8,10.8,0,0,0,.48-1.5s0,.14,0,.42a5.2,5.2,0,0,1-.3,1.16,6,6,0,0,1-3,3.15,5.51,5.51,0,0,1-3,.49,6.71,6.71,0,0,1-3.23-1.42,10.63,10.63,0,0,1-2.55-2.92,24.23,24.23,0,0,1-1.74-3.75c-1-2.61-2-5.12-3.6-6.87s-3.77-2.68-5.52-2.25a4.71,4.71,0,0,0-3.31,2.37A5,5,0,0,0,179.69,270.63Z" transform="translate(-35.58 -34.24)"/><path class="cls-6" d="M154.72,291s-.05-.12-.08-.36a10.12,10.12,0,0,1-.13-1.06,15.18,15.18,0,0,1,.25-3.92,17.63,17.63,0,0,1,2-5.47,16.93,16.93,0,0,1,4.8-5.29,20.18,20.18,0,0,1,12.31-3.53,14.24,14.24,0,0,1,3.87.71,7.54,7.54,0,0,1,1,.39q.33.15.33.18a20.4,20.4,0,0,0-5.2-.91,20.71,20.71,0,0,0-12,3.58,16.67,16.67,0,0,0-4.68,5.11,18.05,18.05,0,0,0-2.08,5.3A24.11,24.11,0,0,0,154.72,291Z" transform="translate(-35.58 -34.24)"/><path class="cls-6" d="M163.07,290.15a3.59,3.59,0,0,1,0-1,16.3,16.3,0,0,1,.39-2.78,17.82,17.82,0,0,1,4.3-8.14,18,18,0,0,1,7.8-4.9,16.06,16.06,0,0,1,2.75-.6,3.69,3.69,0,0,1,1,0c0,.1-1.45.22-3.66,1a18.42,18.42,0,0,0-11.86,12.78C163.17,288.69,163.17,290.16,163.07,290.15Z" transform="translate(-35.58 -34.24)"/><path class="cls-8" d="M160.78,368.22c-2.89-8.86-10-17.89-17.74-14.64-8.65,3.63-11.06,8.23-15.8,15.35s-7.65,15.27-10.51,23.33c-1.12,3.15-2.2,6.81-.49,9.68,1.48,2.48,4.53,3.45,7.33,4.2q10.8,2.88,21.81,4.92c3,.55,6.17,1,8.77-.47,3.31-1.87,4.31-6.07,5-9.8l7.25-39.25" transform="translate(-35.58 -34.24)"/><path class="cls-8" d="M152.46,349.33l-11.38,4.91c-5.76,4.53-7.38,12.29-7.19,19.59L129.16,454s33.2,20.52,72-.94c1-.56-6.5-18.89-6.5-18.89l10.57-40c.81-5.76,1.31-17.69-.19-23.35-3.85-14.52-14.15-18.86-24.73-21.77,0,0-10.58,8.88-20.91,7C159.4,356,153.1,355.43,152.46,349.33Z" transform="translate(-35.58 -34.24)"/><g class="cls-9"><path d="M137.17,416.05q9.86,14.26,19.7,28.55c2.57,3.72,5.24,7.54,9,10a17,17,0,0,0,25.94-17.33,4.13,4.13,0,0,0-.88-2.13,3.31,3.31,0,0,0-3.36-.64,17.3,17.3,0,0,0-3.22,1.61c-6.19,3.28-14.05,1.52-19.85-2.4s-10.06-9.67-14.5-15.08c-1.65-2-3.44-4.06-5.87-5s-5.66-.16-6.69,2.21" transform="translate(-35.58 -34.24)"/></g><ellipse class="cls-4" cx="134.78" cy="335.76" rx="6.8" ry="6.78"/><path class="cls-4" d="M138.65,364.21a6.81,6.81,0,1,0,6.8-6.78A6.79,6.79,0,0,0,138.65,364.21Z" transform="translate(-35.58 -34.24)"/><path class="cls-4" d="M133.17,429.17a6.8,6.8,0,1,0,6.8-6.79A6.79,6.79,0,0,0,133.17,429.17Z" transform="translate(-35.58 -34.24)"/><ellipse class="cls-4" cx="116.68" cy="414.46" rx="6.8" ry="6.78"/><ellipse class="cls-4" cx="148.38" cy="416.11" rx="6.8" ry="6.78"/><ellipse class="cls-4" cx="121.52" cy="374.34" rx="6.8" ry="6.78"/><ellipse class="cls-4" cx="114.72" cy="352.95" rx="6.8" ry="6.78"/><path class="cls-5" d="M150.3,351a16.06,16.06,0,0,0,3.5,4.31,15.77,15.77,0,0,0,5.28,2.86,17.54,17.54,0,0,0,7.29.74,21.92,21.92,0,0,0,7.06-2.13,29.1,29.1,0,0,0,5.12-3.24,40.72,40.72,0,0,0,3.11-2.69,9.85,9.85,0,0,1,1.12-1,7.46,7.46,0,0,1-1,1.16,31.34,31.34,0,0,1-3,2.84,27.9,27.9,0,0,1-5.14,3.38,21.76,21.76,0,0,1-7.21,2.22,17.66,17.66,0,0,1-7.5-.8,15.87,15.87,0,0,1-5.37-3,12.21,12.21,0,0,1-2.64-3.21,7.29,7.29,0,0,1-.49-1C150.33,351.11,150.28,351,150.3,351Z" transform="translate(-35.58 -34.24)"/><path class="cls-8" d="M184.56,350.51c7.78,3.25,15.88,6.73,21.25,13.22s7.36,15.54,7,24.08-2.88,16.83-5.35,25c-1,3.2-2.26,6.79-5.35,8.09-2.66,1.13-5.7.12-8.39-.93q-10.43-4-20.52-8.9c-2.69-1.29-5.57-2.82-6.79-5.55-1.55-3.46.12-7.43,1.78-10.85l17.42-35.93" transform="translate(-35.58 -34.24)"/><ellipse class="cls-4" cx="165.58" cy="357.72" rx="6.8" ry="6.78"/><ellipse class="cls-4" cx="147.57" cy="370.12" rx="6.8" ry="6.78"/><path class="cls-4" d="M185,371.06a6.67,6.67,0,1,0,6.67-6.65A6.66,6.66,0,0,0,185,371.06Z" transform="translate(-35.58 -34.24)"/><path class="cls-12" d="M171.13,410.05l-1.74,6.67-34.56-25.18-10.58-15a9.55,9.55,0,0,0-6-3.88h0a9.57,9.57,0,0,0-7.36,1.59l-9.85,7s.27,5.3,2.66,4.24,7.18-3.71,7.18-3.71l1.33,12.72,5.85,4.24,5.85,4.51,39,38.73a17.42,17.42,0,0,0,27.84-4.54L196.58,421Z" transform="translate(-35.58 -34.24)"/><path class="cls-13" d="M168.52,415.77a2.89,2.89,0,0,1,1.45.9,7.55,7.55,0,0,1,2,3.57,14.34,14.34,0,0,1,.38,4.08,5.22,5.22,0,0,1-.2,1.67,5.58,5.58,0,0,1-.17-1.67,19.49,19.49,0,0,0-.51-3.94,8.55,8.55,0,0,0-1.78-3.46C169,416.17,168.48,415.85,168.52,415.77Z" transform="translate(-35.58 -34.24)"/><path class="cls-13" d="M110.85,382.38c-.06,0,.11-.44.52-1a4.61,4.61,0,0,1,2.19-1.77,2.83,2.83,0,0,1,2.79.54c.56.54.54,1.08.49,1.07s-.2-.41-.73-.79a2.74,2.74,0,0,0-2.38-.33,5.47,5.47,0,0,0-2.08,1.51C111.19,382.09,110.91,382.43,110.85,382.38Z" transform="translate(-35.58 -34.24)"/><path class="cls-13" d="M117,385.78c-.06.05-.32-.18-.8-.45a4.2,4.2,0,0,0-2-.53,4.07,4.07,0,0,0-2,.55c-.47.27-.73.51-.79.45s.11-.37.58-.75a3.55,3.55,0,0,1,4.39,0C116.92,385.4,117.09,385.74,117,385.78Z" transform="translate(-35.58 -34.24)"/><path class="cls-5" d="M171.13,410a1.88,1.88,0,0,1-.67-.15,3.72,3.72,0,0,1-1.56-1.19,5.63,5.63,0,0,1-1.13-2.88,8.29,8.29,0,0,1,.73-4c.57-1.42,1.42-2.85,2.14-4.45a43.42,43.42,0,0,0,2-5.26c1.19-3.8,2-8.1,3.23-12.55a40,40,0,0,1,5.05-12,19.54,19.54,0,0,1,7.94-7,14.51,14.51,0,0,1,7-1.42,9.35,9.35,0,0,1,2.58.49c0,.07-.92-.22-2.59-.28a14.65,14.65,0,0,0-6.83,1.54,19.57,19.57,0,0,0-7.7,6.92,40.33,40.33,0,0,0-4.94,11.84c-1.19,4.43-2.06,8.74-3.28,12.56a42.42,42.42,0,0,1-2.05,5.3c-.75,1.62-1.62,3-2.19,4.41a8.16,8.16,0,0,0-.79,3.87,5.59,5.59,0,0,0,1,2.79,3.86,3.86,0,0,0,1.44,1.21C170.9,410,171.13,410,171.13,410Z" transform="translate(-35.58 -34.24)"/><path class="cls-5" d="M132.77,388.33a73.07,73.07,0,0,1,.86-8.67,72.47,72.47,0,0,1,1.37-8.6,74.21,74.21,0,0,1-.85,8.67A71.17,71.17,0,0,1,132.77,388.33Z" transform="translate(-35.58 -34.24)"/><path class="cls-12" d="M117.23,403.18l-1.83,14.44-22-18.76-12,2.9s12.42,26.08,22.23,36.4,15.1,11.8,18.8,12c5.09.22,7.41-6,7.41-6L132,408.26Z" transform="translate(-35.58 -34.24)"/><path class="cls-13" d="M115.48,417.24a9.64,9.64,0,0,1,1.55,3.59,9.86,9.86,0,0,1,.52,3.89,30.48,30.48,0,0,1-1-3.75A31.05,31.05,0,0,1,115.48,417.24Z" transform="translate(-35.58 -34.24)"/><path class="cls-6" d="M91.25,362.26H74.67c-2.5,0-4.74,2.9-3.84,5.28L87.5,400a3.76,3.76,0,0,0,3.35,2.05l20.21,0a2.89,2.89,0,0,0,2.2-4.28L97.18,366A6.6,6.6,0,0,0,91.25,362.26Z" transform="translate(-35.58 -34.24)"/><path class="cls-5" d="M90.13,364.21H73.55a2.77,2.77,0,0,0-2.47,4L87.35,400a3.77,3.77,0,0,0,3.36,2.05h20a1.63,1.63,0,0,0,1.45-2.36L96.06,367.9A6.6,6.6,0,0,0,90.13,364.21Z" transform="translate(-35.58 -34.24)"/><path class="cls-12" d="M88.72,377.51l-10.08,4-2.16,8.12,4.85,12.1,17.83,2.6L93.94,399l.67-4.64s5-1.56,5.1-2.32-.62-3.32-1.38-3.44-6,1.82-6,1.82,6.17-4.89,6-5.67-.84-2.8-2.07-3-11.19,4.47-11.19,4.47l-1.62,3.69L82.06,384S90.91,381.53,88.72,377.51Z" transform="translate(-35.58 -34.24)"/><path class="cls-13" d="M90,396.56c-.06,0-.25-.35-.34-1a5.46,5.46,0,0,1,1.73-4.68c.5-.43.88-.59.92-.54a11.09,11.09,0,0,0-1.86,2.85A11.5,11.5,0,0,0,90,396.56Z" transform="translate(-35.58 -34.24)"/><path class="cls-13" d="M85.2,394.8a21.83,21.83,0,0,0,.4-2.64,11.35,11.35,0,0,1,.51-2.93,4.29,4.29,0,0,1,.93-1.56,4.54,4.54,0,0,1,1.64-1c2.42-.87,4.59-1.58,6.18-2.09a13.44,13.44,0,0,1,2.6-.72A13,13,0,0,1,95,384.88c-1.55.6-3.74,1.38-6.1,2.24a4.25,4.25,0,0,0-1.48.91,3.91,3.91,0,0,0-.84,1.37,13.09,13.09,0,0,0-.6,2.8A5.26,5.26,0,0,1,85.2,394.8Z" transform="translate(-35.58 -34.24)"/><path class="cls-13" d="M82.88,393c-.14,0-.11-.91.07-2s.44-1.93.58-1.9.11.91-.07,2S83,393,82.88,393Z" transform="translate(-35.58 -34.24)"/><path class="cls-7" d="M82.61,370.34a2.12,2.12,0,1,0,2.12-2.12A2.12,2.12,0,0,0,82.61,370.34Z" transform="translate(-35.58 -34.24)"/><path class="cls-13" d="M123.94,403.2a3.17,3.17,0,0,1,.61.49l1.65,1.48,5.82,5.38.08.07v.11c-.26,3.37-.57,7.33-.9,11.56-.45,6.21-.81,11.82-1,15.89-.09,2-.16,3.6-.22,4.82a10.48,10.48,0,0,1-.12,1.77,13.09,13.09,0,0,1-.08-1.77c0-1.14,0-2.79.05-4.83.11-4.08.41-9.71.86-15.91.31-4.26.65-8.23,1-11.57l.07.18L126,405.36l-1.57-1.57A2.94,2.94,0,0,1,123.94,403.2Z" transform="translate(-35.58 -34.24)"/></g><g id="Character_1" data-name="Character 1"><path class="cls-3" d="M291.06,148.94,255.51,131.3a75.46,75.46,0,1,0,6.78,34.55Z" transform="translate(-35.58 -34.24)"/><path class="cls-5" d="M255.13,80.66a2,2,0,1,1-2-2A2,2,0,0,1,255.13,80.66Z" transform="translate(-35.58 -34.24)"/><path class="cls-5" d="M263,80.66a2,2,0,1,1-2-2A2,2,0,0,1,263,80.66Z" transform="translate(-35.58 -34.24)"/><path class="cls-5" d="M270.8,79.68a2,2,0,1,1-2.68-.72A2,2,0,0,1,270.8,79.68Z" transform="translate(-35.58 -34.24)"/><path class="cls-5" d="M261.14,57.77a2.29,2.29,0,0,1,.39,0l1.17,0,.86,0,1,.15,1.19.17,1.34.33a21.52,21.52,0,0,1,6.5,2.83A22.72,22.72,0,0,1,284.2,81.67c0,.53,0,1.07-.1,1.61s-.16,1.07-.24,1.62a22.89,22.89,0,0,1-2.19,6.38A24.51,24.51,0,0,1,277.5,97a24.22,24.22,0,0,1-6,4.32,22.11,22.11,0,0,1-7.33,2.25,15.86,15.86,0,0,1-2,.16,18.69,18.69,0,0,1-2,0,24.23,24.23,0,0,1-4-.5,23.35,23.35,0,0,1-7.88-3.32l.24,0-8,3.22-.48.19.14-.5q1.22-4.41,2.36-8.58l0,.22a23.16,23.16,0,0,1-4.29-9.81,21.39,21.39,0,0,1-.31-5,17.26,17.26,0,0,1,.23-2.41l.18-1.18c.07-.38.19-.76.28-1.13a23,23,0,0,1,9-13.06,21.73,21.73,0,0,1,5.33-2.81l1.2-.43,1.14-.29,1-.26c.33-.06.66-.09,1-.14.6-.08,1.14-.18,1.6-.21l1.18,0,.72,0a.93.93,0,0,1,.25,0l-.24,0-.72.06-1.17.08c-.47,0-1,.15-1.6.24a22.8,22.8,0,0,0-18.24,16.93c-.09.37-.21.74-.28,1.11s-.11.77-.17,1.16a15.36,15.36,0,0,0-.21,2.37,21.1,21.1,0,0,0,.32,4.92,22.7,22.7,0,0,0,4.23,9.59l.07.1,0,.11q-1.14,4.17-2.34,8.59l-.34-.3,8-3.23.13,0,.11.07a22.69,22.69,0,0,0,7.7,3.24,24.24,24.24,0,0,0,3.87.49,17.71,17.71,0,0,0,1.93,0,13.42,13.42,0,0,0,1.91-.16,21.37,21.37,0,0,0,7.17-2.19,23.62,23.62,0,0,0,5.89-4.21,24,24,0,0,0,4.1-5.62,22.65,22.65,0,0,0,2.16-6.25l.24-1.58c.08-.53.07-1.06.11-1.58a24.27,24.27,0,0,0-.05-3.08,22.64,22.64,0,0,0-10.25-17,21.72,21.72,0,0,0-6.39-2.88l-1.32-.36-1.19-.19-1-.17-.85-.06-1.16-.09Z" transform="translate(-35.58 -34.24)"/><path class="cls-5" d="M232.62,154.68c.14,0,.15,7.09,0,15.83s-.36,15.82-.5,15.81-.15-7.08,0-15.82S232.48,154.68,232.62,154.68Z" transform="translate(-35.58 -34.24)"/><path class="cls-5" d="M203.55,117.23a2.27,2.27,0,0,1,0,.52c0,.34-.12.84-.25,1.48a17.31,17.31,0,0,1-2.11,5.11,17.93,17.93,0,0,1-5.76,5.81,17.72,17.72,0,0,1-19.18-.54,18,18,0,0,1-5.43-6.13,17.25,17.25,0,0,1-1.81-5.22,13.47,13.47,0,0,1-.17-1.49,1.78,1.78,0,0,1,0-.53c.06,0,.1.72.37,2a18.38,18.38,0,0,0,1.93,5.08,18,18,0,0,0,5.38,5.91,17.43,17.43,0,0,0,18.65.53,17.86,17.86,0,0,0,5.71-5.59,18.48,18.48,0,0,0,2.22-5C203.41,117.94,203.49,117.22,203.55,117.23Z" transform="translate(-35.58 -34.24)"/><path class="cls-5" d="M142.5,156.82c.14,0,.26,6.91.27,15.43s-.11,15.43-.26,15.43-.26-6.91-.26-15.43S142.36,156.82,142.5,156.82Z" transform="translate(-35.58 -34.24)"/><path class="cls-14" d="M142.4,225.81" transform="translate(-35.58 -34.24)"/><path class="cls-6" d="M172,114.46h29.7s26.85,9.54,35.58,16.24,22.12,53.83,22.12,53.83l-26.82-.79-2,40.5c-27.47,19.56-60.44,18.13-85.9,1l-2-38.33-22.34-.66c-7.55-.22-7.91-2.3-7.91-2.3s17.18-45.11,22.41-53.84c4.57-7.6,31.11-14.4,37.16-15.66" transform="translate(-35.58 -34.24)"/><path class="cls-7" d="M243.47,141.5a5.75,5.75,0,0,1-1.06.62,9.92,9.92,0,0,1-3.39.94,16.2,16.2,0,0,1-5.56-.45,34.46,34.46,0,0,1-6.9-2.63,48.59,48.59,0,0,0-8.21-3.36,19.67,19.67,0,0,0-10,.12A45.48,45.48,0,0,0,198,141.12c-3.43,1.89-6.91,4-10.73,5.74a26.37,26.37,0,0,1-11.88,2.62,31,31,0,0,1-11-2.81c-3.33-1.43-6.33-3.1-9.19-4.55a58.61,58.61,0,0,0-8.15-3.53,22.84,22.84,0,0,0-12.65-.84,15.55,15.55,0,0,0-3.28,1.19c-.36.17-.62.34-.8.43a1.47,1.47,0,0,1-.29.13l.26-.18c.18-.1.43-.29.78-.47a14.82,14.82,0,0,1,3.28-1.3,22.75,22.75,0,0,1,12.81.69,56.4,56.4,0,0,1,8.23,3.5c2.88,1.43,5.88,3.08,9.19,4.49A30.8,30.8,0,0,0,175.42,149a25.94,25.94,0,0,0,11.64-2.59c3.78-1.69,7.25-3.82,10.7-5.71a45.61,45.61,0,0,1,10.46-4.39,20.1,20.1,0,0,1,10.24-.08,48.4,48.4,0,0,1,8.26,3.45,35.35,35.35,0,0,0,6.81,2.68,16.47,16.47,0,0,0,5.47.53,10.64,10.64,0,0,0,3.37-.83C243.1,141.71,243.46,141.48,243.47,141.5Z" transform="translate(-35.58 -34.24)"/><path class="cls-7" d="M253.22,164.1s-.42-.26-1.27-.64a13.09,13.09,0,0,0-3.92-1.07,17.85,17.85,0,0,0-6.39.47,30.73,30.73,0,0,0-7.83,3.38c-2.76,1.57-5.62,3.57-8.91,5.4s-7.08,3.52-11.38,3.61-8.64-1.34-12.82-3.19-8.43-4.06-13.13-5.15a36.24,36.24,0,0,0-14,0c-4.51.76-8.75,2-12.83,3.06A85.62,85.62,0,0,1,149,172.41a34.09,34.09,0,0,1-10.44-.2,22,22,0,0,1-13-7.31,16,16,0,0,1-2.14-3.51l-.37-1A1.79,1.79,0,0,1,123,160a17.65,17.65,0,0,0,2.77,4.73,22,22,0,0,0,12.88,7.08A34,34,0,0,0,149,172a87.49,87.49,0,0,0,11.65-2.49c4.06-1.09,8.32-2.33,12.86-3.1a36.48,36.48,0,0,1,14.2,0c4.8,1.11,9,3.36,13.23,5.19s8.41,3.32,12.59,3.18,7.94-1.74,11.19-3.51,6.15-3.78,8.94-5.34a30.47,30.47,0,0,1,7.94-3.34,17.93,17.93,0,0,1,6.49-.39,12.5,12.5,0,0,1,3.93,1.17A6.66,6.66,0,0,1,253.22,164.1Z" transform="translate(-35.58 -34.24)"/><path class="cls-7" d="M231.72,201.17a3.89,3.89,0,0,1-.84.41,7.71,7.71,0,0,1-2.67.42,12.2,12.2,0,0,1-4.19-.87,52.71,52.71,0,0,1-5.08-2.47,19.93,19.93,0,0,0-6.37-2.15,25.18,25.18,0,0,0-7.73.12c-5.45.81-11,3.32-17,5.56a55.65,55.65,0,0,1-9,2.61,54.12,54.12,0,0,1-8.64,1,53.56,53.56,0,0,1-14.58-1.63,47.59,47.59,0,0,1-9.3-3.39c-1.07-.48-1.85-1-2.39-1.24l-.61-.35c-.13-.08-.2-.13-.19-.14l.22.09.63.3c.56.26,1.35.71,2.42,1.16a52.07,52.07,0,0,0,9.31,3.21,53.25,53.25,0,0,0,23,.53,56.31,56.31,0,0,0,8.88-2.59c5.93-2.24,11.55-4.76,17.08-5.56a25.77,25.77,0,0,1,7.88-.07,19.94,19.94,0,0,1,6.47,2.26,54.74,54.74,0,0,0,5,2.52,12.32,12.32,0,0,0,4.08.93A8.13,8.13,0,0,0,231.72,201.17Z" transform="translate(-35.58 -34.24)"/><path class="cls-7" d="M230.87,222.14a26,26,0,0,0-2.64-2.56,17.41,17.41,0,0,0-9.16-3.63,16.21,16.21,0,0,0-6.77.8,24.44,24.44,0,0,0-6.78,4c-2.19,1.74-4.33,3.78-6.72,5.72a24.22,24.22,0,0,1-8.25,4.73,23.08,23.08,0,0,1-9.49.6,52.26,52.26,0,0,1-8.64-2c-5.39-1.65-10.08-3.62-14.16-4.76a23.67,23.67,0,0,0-9.89-1,23,23,0,0,0-3.55.91l.21-.11.66-.27a6.68,6.68,0,0,1,1.1-.37,9.35,9.35,0,0,1,1.55-.36,23.39,23.39,0,0,1,10,.88c4.13,1.11,8.82,3,14.2,4.66a52.23,52.23,0,0,0,8.56,1.94,22.54,22.54,0,0,0,9.28-.59,23.86,23.86,0,0,0,8.08-4.62c2.37-1.93,4.52-4,6.74-5.71a24.48,24.48,0,0,1,6.94-4,16.21,16.21,0,0,1,6.94-.77,17.25,17.25,0,0,1,9.25,3.84A12.54,12.54,0,0,1,230.87,222.14Z" transform="translate(-35.58 -34.24)"/><g class="cls-9"><path d="M141.78,218.18c6,.47,11.39-3.58,15.87-7.64s9.15-8.6,15.14-9.46c6.27-.9,12.65,2.5,18.86,1.25,2.8-.56,5.41-2,8.26-2.15,4.7-.19,8.64,3.31,12,6.58l13.18,12.74c1.35,1.3,3.92,3.25,5.6,2.44l.33-6.57c-2.11-11.83-4.4-24-13.51-31.82-6.76-5.82-16-7.81-24.82-8.82-10.73-1.22-22.35-1.08-31.36,4.88-6,4-10.25,10.2-13,16.84s-4.22,13.77-5.64,20.83" transform="translate(-35.58 -34.24)"/></g><path class="cls-13" d="M257.24,184.48C257.5,186,261.82,211,261,216s-2.07,11.43-7.79,13.77-14-.78-18.71-8.83-24.95-36.39-24.95-36.39l-15.08-1.82V157.48l28.85,18.37,13.26,12-1-4Z" transform="translate(-35.58 -34.24)"/><rect class="cls-5" x="139.3" y="109.85" width="29.52" height="47.82" rx="3.38"/><path class="cls-15" d="M222.09,175.2c.1-.1,6.37,5.32,14,12.11s13.76,12.39,13.66,12.49-6.36-5.31-14-12.1S222,175.31,222.09,175.2Z" transform="translate(-35.58 -34.24)"/><path class="cls-13" d="M116.39,185.89s-3.6,31.06-3.6,34.6,3.19,12,12,12.73S145,214.12,145,214.12l18.4-28L155.24,171l-15.9,15.86Z" transform="translate(-35.58 -34.24)"/><path class="cls-13" d="M198.53,162.77l-23.83-.66L155.24,171l8.14,15.21,14.24-2.07s8.33-1.36,8.84-1.87c1-1,1.8-3.91,2.37-6.47A12.16,12.16,0,0,0,188,168l-.53-.45s7.84-1.64,9.14-2.21C199.72,164,198.53,162.77,198.53,162.77Z" transform="translate(-35.58 -34.24)"/><path class="cls-15" d="M155.24,171a7.92,7.92,0,0,1-.92,1.13c-.62.7-1.54,1.7-2.7,2.92-2.3,2.44-5.56,5.74-9.2,9.34l-9.31,9.23-2.81,2.8a8.33,8.33,0,0,1-1.07,1,7.6,7.6,0,0,1,.92-1.12c.62-.71,1.54-1.71,2.7-2.93,2.3-2.44,5.56-5.74,9.2-9.34l9.31-9.23,2.81-2.8A8.33,8.33,0,0,1,155.24,171Z" transform="translate(-35.58 -34.24)"/><path class="cls-15" d="M178.72,169.84a10.16,10.16,0,0,1,9.37-1.86,29,29,0,0,0-4.82.27A28.88,28.88,0,0,0,178.72,169.84Z" transform="translate(-35.58 -34.24)"/><path class="cls-15" d="M189.43,172.5a18.55,18.55,0,0,0-4.28-.35,19.65,19.65,0,0,0-4.16,1.11,7.78,7.78,0,0,1,8.44-.76Z" transform="translate(-35.58 -34.24)"/><path class="cls-15" d="M187.93,176.89c-.05.06-.31-.12-.76-.28a3.88,3.88,0,0,0-3.53.48c-.39.27-.59.51-.66.46s.05-.35.43-.74a3.32,3.32,0,0,1,3.91-.53C187.79,176.55,188,176.84,187.93,176.89Z" transform="translate(-35.58 -34.24)"/><path class="cls-13" d="M187.76,129.41h0a14.83,14.83,0,0,0,14-14.94c0-4.75-.1-8.82-.1-8.82s12.05-1.88,12.2-13.92S211.89,52,211.89,52h0a41.87,41.87,0,0,0-42.07,5.28L168,58.69l4.07,57A14.82,14.82,0,0,0,187.76,129.41Z" transform="translate(-35.58 -34.24)"/><path class="cls-15" d="M201.65,105.47A28,28,0,0,1,186,101s3.71,8.67,15.73,7.58Z" transform="translate(-35.58 -34.24)"/><path class="cls-13" d="M169.52,71.16c-.2-.08-8.27-2.44-8,5.79S170,83.22,170,83,169.52,71.16,169.52,71.16Z" transform="translate(-35.58 -34.24)"/><path class="cls-15" d="M167.38,80s-.14.1-.38.22a1.44,1.44,0,0,1-1.07.06c-.88-.29-1.66-1.65-1.75-3.14a4.76,4.76,0,0,1,.34-2.06,1.67,1.67,0,0,1,1-1.14.73.73,0,0,1,.86.37c.12.23.07.39.12.4s.17-.14.09-.48a.9.9,0,0,0-.34-.5,1.06,1.06,0,0,0-.8-.19A2.06,2.06,0,0,0,164,74.82a4.94,4.94,0,0,0-.42,2.31c.11,1.66,1,3.18,2.21,3.49a1.54,1.54,0,0,0,1.3-.26C167.37,80.15,167.41,80,167.38,80Z" transform="translate(-35.58 -34.24)"/><path class="cls-5" d="M207.94,72.34a1.71,1.71,0,0,1-1.66,1.73,1.63,1.63,0,0,1-1.77-1.55,1.71,1.71,0,0,1,1.65-1.73A1.65,1.65,0,0,1,207.94,72.34Z" transform="translate(-35.58 -34.24)"/><path class="cls-5" d="M209.61,69c-.22.22-1.52-.74-3.37-.73s-3.21.93-3.41.7.12-.51.71-.94a4.75,4.75,0,0,1,2.73-.84A4.53,4.53,0,0,1,209,68C209.52,68.46,209.71,68.87,209.61,69Z" transform="translate(-35.58 -34.24)"/><path class="cls-5" d="M189.39,72.55a1.72,1.72,0,0,1-1.66,1.74A1.64,1.64,0,0,1,186,72.74,1.72,1.72,0,0,1,187.61,71,1.65,1.65,0,0,1,189.39,72.55Z" transform="translate(-35.58 -34.24)"/><path class="cls-5" d="M191.41,69.32c-.21.22-1.51-.74-3.36-.74s-3.21.93-3.41.7.11-.5.71-.93a4.66,4.66,0,0,1,2.73-.84,4.53,4.53,0,0,1,2.68.86C191.32,68.81,191.52,69.22,191.41,69.32Z" transform="translate(-35.58 -34.24)"/><path class="cls-5" d="M198.13,83a12.71,12.71,0,0,1,3-.54c.47,0,.92-.14,1-.47a2.42,2.42,0,0,0-.32-1.4l-1.4-3.6c-1.94-5.12-3.34-9.33-3.14-9.41s1.95,4,3.89,9.14c.47,1.26.92,2.47,1.34,3.62a2.75,2.75,0,0,1,.25,1.86,1.21,1.21,0,0,1-.78.69,3.63,3.63,0,0,1-.8.11A11.7,11.7,0,0,1,198.13,83Z" transform="translate(-35.58 -34.24)"/><path class="cls-5" d="M192.68,84.32c.3,0,.31,2,2,3.42s3.86,1.21,3.87,1.49c0,.12-.47.39-1.38.41A5,5,0,0,1,194,88.51a4.35,4.35,0,0,1-1.57-2.86C192.32,84.81,192.55,84.31,192.68,84.32Z" transform="translate(-35.58 -34.24)"/><path class="cls-5" d="M191.89,62.06c-.18.51-2,.27-4.2.53s-3.93.85-4.22.4c-.13-.21.18-.69.89-1.18a7.17,7.17,0,0,1,3.12-1.09,7,7,0,0,1,3.29.39C191.57,61.43,192,61.82,191.89,62.06Z" transform="translate(-35.58 -34.24)"/><path class="cls-5" d="M208.93,63.61c-.33.42-1.6,0-3.14,0s-2.83.28-3.13-.16c-.13-.21.08-.63.64-1a4.55,4.55,0,0,1,5,.15C208.89,63,209.07,63.41,208.93,63.61Z" transform="translate(-35.58 -34.24)"/><path class="cls-5" d="M217.75,44.42a4.43,4.43,0,0,0-1.64-4,3.14,3.14,0,0,0-4.08.31,3.69,3.69,0,0,0-3.17-4.47c-2-.12-3.64,1.36-5.53,1.88a8.93,8.93,0,0,1-5.63-.65c-1.78-.71-3.45-1.71-5.25-2.36a15.41,15.41,0,0,0-19.7,9A6.82,6.82,0,0,0,165.5,47a11.2,11.2,0,0,0-1.72,7.9,24.76,24.76,0,0,0,1.38,5.4c0,.16,0,.31,0,.46.13,6.63.88,14.41,3.7,14.45,4.93.07,3.75-9.2,3.75-9.2,6-2.34,3.8-11.4,5.31-12.77s4.67-4.57,17.32,1.9c4.92,2.51,11.45,2.44,15,1.63l.31-.07h.08l.1,0A11.62,11.62,0,0,0,214,55.22a6.48,6.48,0,0,0,2.67-3,3.52,3.52,0,0,0-.69-3.77A7.64,7.64,0,0,0,217.75,44.42Z" transform="translate(-35.58 -34.24)"/></g><g id="Device"><path class="cls-5" d="M464.86,444.2l-129.71-.6A28.26,28.26,0,0,1,307,415.23L308.4,90a28.25,28.25,0,0,1,28.38-28.14l129.72.6a28.26,28.26,0,0,1,28.13,28.38l-1.38,325.2A28.24,28.24,0,0,1,464.86,444.2Z" transform="translate(-35.58 -34.24)"/><path class="cls-7" d="M466.32,73.71l-25.15-.11A6.25,6.25,0,0,0,435,80l0,4.56a6.24,6.24,0,0,1-6.13,6.36l-49-.23a6.24,6.24,0,0,1-6.08-6.41l0-4.56a6.25,6.25,0,0,0-6.08-6.41l-8.85,0-22-.11A19.79,19.79,0,0,0,317,92.82l-1.34,317.42a19.79,19.79,0,0,0,19.69,19.88l129.46.59A19.79,19.79,0,0,0,484.67,411L486,93.59A19.79,19.79,0,0,0,466.32,73.71Z" transform="translate(-35.58 -34.24)"/><path class="cls-8" d="M347.32,123.9a6.22,6.22,0,1,1-6.22-6.22A6.22,6.22,0,0,1,347.32,123.9Z" transform="translate(-35.58 -34.24)"/><path class="cls-8" d="M358.92,119.22H463.31a5.78,5.78,0,0,1,5.78,5.78v15.82a5.77,5.77,0,0,1-5.78,5.77H369.82a5.77,5.77,0,0,1-5.78-5.77v-17Z" transform="translate(-35.58 -34.24)"/><path class="cls-4" d="M452.35,129c0,.14-16,.26-35.79.26s-35.8-.12-35.8-.26,16-.26,35.8-.26S452.35,128.89,452.35,129Z" transform="translate(-35.58 -34.24)"/><path class="cls-4" d="M452.35,135.48c0,.15-16,.26-35.79.26s-35.8-.11-35.8-.26,16-.26,35.8-.26S452.35,135.34,452.35,135.48Z" transform="translate(-35.58 -34.24)"/><path class="cls-8" d="M347.32,277a6.22,6.22,0,1,1-6.22-6.22A6.22,6.22,0,0,1,347.32,277Z" transform="translate(-35.58 -34.24)"/><path class="cls-8" d="M358.92,272.28H463.31a5.78,5.78,0,0,1,5.78,5.78v15.81a5.78,5.78,0,0,1-5.78,5.78H369.82a5.78,5.78,0,0,1-5.78-5.78v-17Z" transform="translate(-35.58 -34.24)"/><path class="cls-4" d="M452.35,282.1c0,.14-16,.26-35.79.26s-35.8-.12-35.8-.26,16-.26,35.8-.26S452.35,282,452.35,282.1Z" transform="translate(-35.58 -34.24)"/><path class="cls-4" d="M452.35,288.54c0,.15-16,.26-35.79.26s-35.8-.11-35.8-.26,16-.26,35.8-.26S452.35,288.4,452.35,288.54Z" transform="translate(-35.58 -34.24)"/><circle class="cls-6" cx="420.99" cy="137.49" r="6.11"/><path class="cls-6" d="M441.82,163.14H344.05a5.41,5.41,0,0,0-5.41,5.41v14.81a5.41,5.41,0,0,0,5.41,5.41h87.57a5.41,5.41,0,0,0,5.41-5.41V167.45Z" transform="translate(-35.58 -34.24)"/><path class="cls-4" d="M354.32,172.33c0-.14,15-.26,33.53-.26s33.52.12,33.52.26-15,.26-33.52.26S354.32,172.47,354.32,172.33Z" transform="translate(-35.58 -34.24)"/><path class="cls-4" d="M354.32,178.37c0-.15,15-.27,33.53-.27s33.52.12,33.52.27-15,.26-33.52.26S354.32,178.51,354.32,178.37Z" transform="translate(-35.58 -34.24)"/><path class="cls-5" d="M334.88,214.81a6.22,6.22,0,1,0,6.22-6.22A6.22,6.22,0,0,0,334.88,214.81Z" transform="translate(-35.58 -34.24)"/><path class="cls-5" d="M362.8,205.8h97.78a5.41,5.41,0,0,1,5.41,5.41V226a5.41,5.41,0,0,1-5.41,5.41H373A5.41,5.41,0,0,1,367.6,226V210.11Z" transform="translate(-35.58 -34.24)"/><path class="cls-4" d="M450.31,215c0,.14-15,.26-33.53.26s-33.53-.12-33.53-.26,15-.26,33.53-.26S450.31,214.85,450.31,215Z" transform="translate(-35.58 -34.24)"/><path class="cls-4" d="M450.31,221c0,.14-15,.26-33.53.26s-33.53-.12-33.53-.26,15-.26,33.53-.26S450.31,220.88,450.31,221Z" transform="translate(-35.58 -34.24)"/><rect class="cls-5" x="394.95" y="209.33" width="31.58" height="16.51" rx="3.99"/><path class="cls-4" d="M456.48,251.82a83.78,83.78,0,0,1-9.26.26,83.9,83.9,0,0,1-9.27-.26,83.9,83.9,0,0,1,9.27-.26A83.78,83.78,0,0,1,456.48,251.82Z" transform="translate(-35.58 -34.24)"/><rect class="cls-3" x="292.01" y="319.1" width="15.46" height="15.46"/><rect class="cls-3" x="310.4" y="319.1" width="15.46" height="15.46"/><rect class="cls-3" x="328.8" y="319.1" width="15.46" height="15.46"/><rect class="cls-3" x="347.19" y="319.1" width="15.46" height="15.46"/><rect class="cls-3" x="365.58" y="319.1" width="15.46" height="15.46"/><rect class="cls-3" x="292.01" y="357.25" width="16.16" height="16.16"/><rect class="cls-3" x="311.24" y="357.29" width="77.97" height="16.16"/><path class="cls-5" d="M472,348.84s0-.4,0-1.17,0-1.91,0-3.41c0-3,0-7.44-.07-13.22l.12.12-144.38.14h0l.26-.26v17.8l-.26-.25,102.6.11,30.6.07,8.29,0,2.16,0H472s-.23,0-.71,0l-2.12,0-8.23,0-30.54.07-102.79.11h-.26V330.78h.27l144.38.15h.12V331c0,5.81-.05,10.26-.07,13.29q0,2.22,0,3.39C472,348.47,472,348.84,472,348.84Z" transform="translate(-35.58 -34.24)"/><rect class="cls-8" x="424.14" y="299.97" width="3.7" height="7.35" rx="1.48"/><path class="cls-8" d="M466.05,340.1a3.25,3.25,0,0,1-1.18.15l.15-.13a4.61,4.61,0,0,1-.75,2.28,3.19,3.19,0,0,1-1.19,1.07,3.44,3.44,0,0,1-1.72.33,3.52,3.52,0,0,1-2.73-1.5,5.2,5.2,0,0,1-.9-2.17l.15.13a4.1,4.1,0,0,1-1.36-.16,4.71,4.71,0,0,1,1.36-.15H458l0,.14a5.94,5.94,0,0,0,1,1.94,3.18,3.18,0,0,0,2.39,1.26,3.11,3.11,0,0,0,1.47-.26,2.78,2.78,0,0,0,1-.88,4.91,4.91,0,0,0,.83-2.05l0-.14h.12A3.76,3.76,0,0,1,466.05,340.1Z" transform="translate(-35.58 -34.24)"/><path class="cls-8" d="M461.57,343.55c.14,0,.26.51.26,1.14s-.12,1.13-.26,1.13-.26-.5-.26-1.13S461.42,343.55,461.57,343.55Z" transform="translate(-35.58 -34.24)"/><rect class="cls-3" x="391.84" y="357.25" width="16.16" height="16.16"/><rect class="cls-8" x="411.06" y="357.25" width="25.34" height="16.16"/><rect class="cls-3" x="384.16" y="319.1" width="15.46" height="15.46"/><rect class="cls-3" x="402.55" y="319.1" width="15.46" height="15.46"/><rect class="cls-3" x="420.94" y="319.1" width="15.46" height="15.46"/><rect class="cls-3" x="292.01" y="338.17" width="15.46" height="15.46"/><rect class="cls-3" x="310.4" y="338.17" width="15.46" height="15.46"/><rect class="cls-3" x="328.8" y="338.17" width="15.46" height="15.46"/><rect class="cls-3" x="347.19" y="338.17" width="15.46" height="15.46"/><rect class="cls-3" x="365.58" y="338.17" width="15.46" height="15.46"/><rect class="cls-3" x="384.16" y="338.17" width="15.46" height="15.46"/><rect class="cls-3" x="402.55" y="338.17" width="15.46" height="15.46"/><rect class="cls-3" x="420.94" y="338.17" width="15.46" height="15.46"/><path class="cls-8" d="M396.85,317.67a2.68,2.68,0,1,1-2.66-2.66A2.66,2.66,0,0,1,396.85,317.67Z" transform="translate(-35.58 -34.24)"/><path class="cls-8" d="M405.12,317.71a2.67,2.67,0,1,1-2.66-2.66A2.65,2.65,0,0,1,405.12,317.71Z" transform="translate(-35.58 -34.24)"/><path class="cls-8" d="M413.4,317.75a2.67,2.67,0,1,1-2.66-2.66A2.66,2.66,0,0,1,413.4,317.75Z" transform="translate(-35.58 -34.24)"/></g></svg>