<?xml version="1.0" encoding="utf-8"?>
<!-- Generator: Adobe Illustrator 25.0.1, SVG Export Plug-In . SVG Version: 6.00 Build 0)  -->
<svg version="1.1" id="Laag_1" xmlns="http://www.w3.org/2000/svg" xmlns:xlink="http://www.w3.org/1999/xlink" x="0px" y="0px"
	 viewBox="0 0 334 153.11" style="enable-background:new 0 0 334 153.11;" xml:space="preserve">
<style type="text/css">
	.st0{fill:url(#SVGID_1_);}
	.st1{opacity:0.5;}
	.st2{fill:#FFFFFF;}
</style>
<linearGradient id="SVGID_1_" gradientUnits="userSpaceOnUse" x1="33.9765" y1="1102.5944" x2="163.7901" y2="1102.5944" gradientTransform="matrix(1 0 0 1 -33.98 -1026.04)">
	<stop  offset="0" style="stop-color:#FFF599"/>
	<stop  offset="1" style="stop-color:#FFD900"/>
</linearGradient>
<path class="st0" d="M124.08,115.66c-5.07-5.78-13.64-6.94-20.06-2.7c-6.35,4.19-14.72,6.38-22.57-1.9
	c-8.62-9.09-7.66-18.72-5.11-25.49c1.94-4.93,6.35-8.45,11.59-9.24c6.92-1.14,16.81-5.71,16-22.54c-0.46-10.12,8-15.35,18.32-18
	c5.38-1.38,8.62-6.86,7.24-12.25c-0.52-2.02-1.65-3.83-3.24-5.17C105.49,0.56,75.02-6.29,43.82,6.81
	C27.6,13.56,14.59,26.27,7.45,42.32c-24.78,56.31,15.8,110.79,69.1,110.79c16.2,0.02,31.98-5.12,45.06-14.67
	c6.95-5.07,8.47-14.82,3.4-21.77c0,0,0,0,0,0c-0.27-0.37-0.56-0.73-0.86-1.07L124.08,115.66z"/>
<g class="st1">
	<path class="st2" d="M80.02,4.39c-2-0.17-4-0.31-6-0.31c-38.2,0.02-69.14,31-69.12,69.2c0,4.83,0.51,9.65,1.52,14.38
		c1.07,5.07,8.59,4.43,8.6-0.75v-0.2C15.02,54.83,28.51,20.96,80.02,4.39z"/>
</g>
<g>
	<g>
		<path class="st2" d="M129.93,88.25c-0.69-0.71-1.05-1.67-1-2.65V61.71h-7.65c-2.33,0-3.49-1-3.49-3s1.16-3,3.49-3h22.65
			c2.33,0,3.49,1,3.5,3c0,2-1.17,3-3.5,3h-7.64V85.6c-0.09,2.1-1.86,3.73-3.95,3.64C131.44,89.2,130.59,88.85,129.93,88.25z"/>
	</g>
	<g>
		<path class="st2" d="M151.51,88.06c-0.64-0.69-0.96-1.61-0.9-2.55V59.16c-0.06-0.94,0.27-1.86,0.9-2.55
			c0.7-0.63,1.62-0.95,2.55-0.89h16.71c2.33,0,3.49,0.94,3.5,2.83s-1.16,2.85-3.5,2.88h-13v7.79h12c2.33,0,3.49,0.96,3.49,2.88
			s-1.16,2.86-3.49,2.83h-12v8.36h13c2.33,0,3.49,0.96,3.5,2.88s-1.16,2.86-3.5,2.83h-16.71C153.12,89.05,152.2,88.71,151.51,88.06z
			"/>
	</g>
	<g>
		<path class="st2" d="M209.53,86.06c0.01,0.87-0.38,1.69-1.06,2.24c-0.67,0.6-1.53,0.92-2.43,0.92c-0.6,0-1.19-0.18-1.7-0.5
			c-0.56-0.35-0.99-0.87-1.23-1.48l-2.5-5.57h-16l-2.5,5.57c-0.24,0.61-0.66,1.12-1.2,1.48c-0.52,0.33-1.12,0.5-1.73,0.5
			c-0.9,0-1.77-0.33-2.45-0.92c-0.69-0.54-1.1-1.36-1.1-2.24c0.02-0.52,0.15-1.04,0.38-1.51l12.75-26.77
			c0.32-0.73,0.86-1.33,1.55-1.72c0.68-0.39,1.44-0.59,2.22-0.59c0.8,0,1.58,0.21,2.27,0.62c0.69,0.4,1.25,0.99,1.61,1.7
			l12.74,26.77C209.38,85.03,209.51,85.54,209.53,86.06z M198.1,76.06l-5.47-12.27l-5.53,12.27H198.1z"/>
		<path class="st2" d="M245.67,56.5c0.67,0.71,1.03,1.65,1,2.62v26.81c0.05,0.91-0.28,1.8-0.9,2.46c-0.63,0.6-1.49,0.93-2.36,0.89
			c-0.86,0.03-1.7-0.29-2.32-0.89c-0.62-0.67-0.94-1.55-0.89-2.46V69.27l-6.71,12.6c-0.34,0.7-0.83,1.31-1.44,1.8
			c-0.54,0.38-1.2,0.58-1.86,0.56c-0.66,0.01-1.3-0.19-1.84-0.56c-0.62-0.48-1.12-1.1-1.47-1.8l-6.7-12.37v16.43
			c0.04,0.9-0.28,1.78-0.9,2.43c-0.62,0.63-1.48,0.96-2.36,0.92c-0.86,0.03-1.69-0.29-2.31-0.89c-0.62-0.66-0.95-1.55-0.9-2.46
			V59.12c-0.03-0.97,0.33-1.91,1-2.62c0.66-0.68,1.58-1.04,2.53-1c1.54,0.01,2.9,0.97,3.44,2.41l9.53,18.15l9.53-18.17
			c0.56-1.41,1.89-2.35,3.4-2.41C244.09,55.44,245.01,55.82,245.67,56.5z"/>
	</g>
</g>
<g>
	<path class="st2" d="M177.14,120.69c1.09,1.5,1.65,3.32,1.58,5.17c0.1,2.59-1.05,5.07-3.09,6.66c-2.06,1.63-4.9,2.44-8.52,2.45
		h-12.37c-1.72,0.19-3.26-1.05-3.45-2.77c-0.02-0.22-0.02-0.45,0-0.68v-26.39c-0.06-0.94,0.27-1.86,0.9-2.55
		c0.7-0.63,1.62-0.95,2.55-0.89h11.9c2.93-0.16,5.82,0.65,8.24,2.31c1.98,1.49,3.11,3.85,3,6.33c0.03,1.63-0.45,3.22-1.39,4.55
		c-0.96,1.33-2.3,2.33-3.85,2.86C174.42,118.2,176.01,119.24,177.14,120.69z M158.47,115.24h6.94c1.46,0.1,2.92-0.25,4.18-1
		c0.92-0.69,1.42-1.8,1.34-2.95c0.1-1.18-0.41-2.33-1.34-3.05c-1.26-0.75-2.72-1.1-4.18-1h-6.94V115.24z M170.47,128.36
		c0.94-0.79,1.43-1.99,1.32-3.21c0.1-1.23-0.39-2.44-1.32-3.26c-1.27-0.78-2.76-1.13-4.25-1h-7.79v8.5h7.79
		c1.5,0.12,3-0.24,4.29-1.03H170.47z"/>
	<path class="st2" d="M187.29,131.78c-2.44-2.4-3.66-5.92-3.66-10.55v-16.17c-0.13-1.88,1.28-3.51,3.16-3.64
		c0.16-0.01,0.32-0.01,0.48,0c0.97-0.05,1.92,0.32,2.62,1c0.68,0.71,1.04,1.67,1,2.65v16.49c0,2.67,0.6,4.67,1.81,6
		c2.96,2.79,7.59,2.79,10.55,0c1.33-1.71,1.99-3.84,1.85-6v-16.5c-0.04-0.98,0.32-1.94,1-2.65c0.7-0.68,1.65-1.05,2.62-1
		c1.88-0.13,3.51,1.28,3.64,3.16c0.01,0.16,0.01,0.32,0,0.48v16.14c0,4.6-1.23,8.11-3.68,10.53s-6.04,3.64-10.75,3.67
		C193.26,135.39,189.72,134.19,187.29,131.78z"/>
	<path class="st2" d="M244.56,120.69c1.08,1.5,1.64,3.32,1.58,5.17c0.1,2.59-1.05,5.07-3.09,6.66c-2.07,1.63-4.91,2.44-8.52,2.45
		h-12.37c-1.72,0.19-3.26-1.05-3.45-2.77c-0.02-0.22-0.02-0.45,0-0.68v-26.39c-0.19-1.71,1.05-3.25,2.76-3.44
		c0.23-0.03,0.46-0.02,0.69,0h11.89c2.93-0.16,5.82,0.65,8.24,2.31c1.98,1.49,3.1,3.85,3,6.33c0.03,1.63-0.46,3.22-1.4,4.55
		c-0.95,1.33-2.3,2.33-3.84,2.86C241.84,118.2,243.42,119.24,244.56,120.69z M225.93,115.24h6.94c1.46,0.1,2.91-0.25,4.17-1
		c0.92-0.69,1.43-1.8,1.35-2.95c0.09-1.18-0.41-2.33-1.35-3.05c-1.26-0.75-2.71-1.1-4.17-1h-6.94V115.24z M237.93,128.36
		c0.95-0.79,1.44-1.99,1.33-3.21c0.1-1.24-0.39-2.45-1.33-3.26c-1.27-0.78-2.76-1.13-4.24-1h-7.76v8.5h7.79
		C235.2,129.49,236.67,129.13,237.93,128.36z"/>
	<path class="st2" d="M277.09,120.69c1.08,1.5,1.64,3.32,1.58,5.17c0.11,2.59-1.05,5.07-3.1,6.66c-2.06,1.63-4.9,2.44-8.52,2.45
		h-12.37c-1.71,0.19-3.25-1.05-3.44-2.76c-0.03-0.23-0.02-0.46,0-0.69v-26.39c-0.19-1.71,1.03-3.25,2.74-3.44
		c0.23-0.03,0.47-0.03,0.7,0h11.9c2.93-0.16,5.82,0.65,8.24,2.31c1.98,1.49,3.11,3.85,3,6.33c0.03,1.63-0.45,3.22-1.39,4.55
		c-0.96,1.33-2.3,2.33-3.85,2.86C274.37,118.2,275.95,119.24,277.09,120.69z M258.41,115.24h6.94c1.46,0.1,2.92-0.25,4.18-1
		c0.92-0.69,1.43-1.8,1.35-2.95c0.09-1.18-0.41-2.33-1.35-3.05c-1.26-0.75-2.72-1.1-4.18-1h-6.94V115.24z M270.41,128.36
		c0.94-0.79,1.43-1.99,1.32-3.21c0.1-1.23-0.39-2.44-1.32-3.26c-1.27-0.78-2.76-1.13-4.25-1h-7.79v8.5h7.79
		c1.5,0.12,3-0.24,4.29-1.03H270.41z"/>
	<path class="st2" d="M284.66,134.06c-0.64-0.69-0.96-1.61-0.9-2.55v-26.45c-0.05-0.98,0.32-1.94,1-2.65c1.55-1.32,3.83-1.32,5.38,0
		c0.68,0.71,1.05,1.67,1,2.65v23.88h12.09c2.29,0,3.43,1,3.44,3c0.01,2-1.14,3-3.44,3h-16
		C286.29,135.01,285.36,134.69,284.66,134.06z"/>
	<path class="st2" d="M311.24,134.06c-0.64-0.69-0.96-1.61-0.9-2.55v-26.38c-0.06-0.94,0.27-1.86,0.9-2.55
		c0.7-0.63,1.61-0.95,2.55-0.89h16.71c2.33,0,3.49,0.94,3.5,2.83c0.01,1.89-1.16,2.85-3.5,2.88h-13v7.79h12
		c2.33,0,3.5,0.96,3.49,2.88c-0.01,1.92-1.17,2.86-3.49,2.83h-12v8.36h13c2.33,0,3.49,0.96,3.5,2.88c0.01,1.92-1.16,2.86-3.5,2.83
		h-16.71C312.85,135.03,311.93,134.7,311.24,134.06z"/>
</g>
</svg>
