<svg xmlns="http://www.w3.org/2000/svg" xmlns:xlink="http://www.w3.org/1999/xlink" width="575.252" height="480.255" viewBox="0 0 575.252 480.255">
  <defs>
    <linearGradient id="linear-gradient" x1="0.5" y1="1" x2="0.5" gradientUnits="objectBoundingBox">
      <stop offset="0" stop-color="gray" stop-opacity="0.251"/>
      <stop offset="0.54" stop-color="gray" stop-opacity="0.122"/>
      <stop offset="1" stop-color="gray" stop-opacity="0.102"/>
    </linearGradient>
  </defs>
  <g id="Group_189" data-name="Group 189" transform="translate(0 0.003)">
    <path id="Path_228" data-name="Path 228" d="M311.6,50.088c16.821-14.972,43.224-18.042,67.26-16.85,75.489,3.755,143.63,40.195,202.575,81.42,21.341,14.92,42.348,31,56.2,51.556,28.217,41.836,19.832,99.79-19.372,134.255-13.343,11.724-29.513,20.731-46.115,28.683-29.518,14.166-61.369,25.539-94.872,28.793-23.887,2.3-48.072.432-71.827-2.787-66.356-9.018-131.479-28.919-186.088-62.964-23.944-14.932-46.512-33.5-56.382-57.643s-3.553-54.781,20.9-69.1c10.112-5.914,22.205-8.586,34.039-11.1,17.425-3.691,35.127-7.331,50.848-14.834,16.245-7.751,35.473-22.741,32.248-39.9C297.576,81.231,294.8,65.061,311.6,50.088Z" transform="translate(-125.118 -33.01)" fill="#6c63ff" opacity="0.1"/>
    <path id="Path_229" data-name="Path 229" d="M785.47,656.432S799.9,630.87,821.628,623.5a44.48,44.48,0,0,0,22.528-16.85A74.587,74.587,0,0,0,850.8,594.7" transform="translate(-391.037 -271.249)" fill="none" stroke="#535461" stroke-miterlimit="10" stroke-width="2"/>
    <path id="Path_230" data-name="Path 230" d="M912.341,578.585c-2.476,2.407-14.011,4.889-14.011,4.889s2.827-11.454,5.3-13.855a6.249,6.249,0,1,1,8.707,8.966Z" transform="translate(-438.906 -259.862)" fill="#6c63ff"/>
    <path id="Path_231" data-name="Path 231" d="M900.726,613.361c-3.386.674-14.4-3.507-14.4-3.507s8.6-8.062,11.984-8.753a6.25,6.25,0,1,1,2.436,12.26Z" transform="translate(-433.816 -273.912)" fill="#6c63ff"/>
    <path id="Path_232" data-name="Path 232" d="M862.216,652.517c-3.265-1.152-10.676-10.308-10.676-10.308s11.517-2.626,14.765-1.5a6.248,6.248,0,1,1-4.089,11.805Z" transform="translate(-419.06 -290.645)" fill="#6c63ff"/>
    <path id="Path_233" data-name="Path 233" d="M823.2,674.743c-3.4-.576-12.26-8.356-12.26-8.356s10.889-4.538,14.293-3.973a6.248,6.248,0,1,1-2.033,12.329Z" transform="translate(-401.84 -299.949)" fill="#6c63ff"/>
    <path id="Path_234" data-name="Path 234" d="M869.59,596.252c0,3.455,6.242,13.458,6.242,13.458s6.254-10,6.254-13.452a6.248,6.248,0,0,0-12.5,0Z" transform="translate(-426.716 -269.26)" fill="#6c63ff"/>
    <path id="Path_235" data-name="Path 235" d="M825.448,621.67c1.037,3.294,9.985,10.976,9.985,10.976s2.971-11.419,1.941-14.713a6.249,6.249,0,0,0-11.926,3.737Z" transform="translate(-407.872 -279.244)" fill="#6c63ff"/>
    <path id="Path_236" data-name="Path 236" d="M786.5,654.334c.461,3.421,7.987,12.508,7.987,12.508s4.86-10.751,4.4-14.172a6.249,6.249,0,0,0-12.387,1.664Z" transform="translate(-391.45 -293.538)" fill="#6c63ff"/>
    <path id="Path_237" data-name="Path 237" d="M912.341,578.585c-2.476,2.407-14.011,4.889-14.011,4.889s2.827-11.454,5.3-13.855a6.249,6.249,0,1,1,8.707,8.966Z" transform="translate(-438.906 -259.862)" opacity="0.25"/>
    <path id="Path_238" data-name="Path 238" d="M900.726,613.361c-3.386.674-14.4-3.507-14.4-3.507s8.6-8.062,11.984-8.753a6.25,6.25,0,1,1,2.436,12.26Z" transform="translate(-433.816 -273.912)" opacity="0.25"/>
    <path id="Path_239" data-name="Path 239" d="M862.216,652.517c-3.265-1.152-10.676-10.308-10.676-10.308s11.517-2.626,14.765-1.5a6.248,6.248,0,1,1-4.089,11.805Z" transform="translate(-419.06 -290.645)" opacity="0.25"/>
    <path id="Path_240" data-name="Path 240" d="M823.2,674.743c-3.4-.576-12.26-8.356-12.26-8.356s10.889-4.538,14.293-3.973a6.248,6.248,0,1,1-2.033,12.329Z" transform="translate(-401.84 -299.949)" opacity="0.25"/>
    <path id="Path_241" data-name="Path 241" d="M869.59,596.252c0,3.455,6.242,13.458,6.242,13.458s6.254-10,6.254-13.452a6.248,6.248,0,0,0-12.5,0Z" transform="translate(-426.716 -269.26)" opacity="0.25"/>
    <path id="Path_242" data-name="Path 242" d="M825.448,621.67c1.037,3.294,9.985,10.976,9.985,10.976s2.971-11.419,1.941-14.713a6.249,6.249,0,0,0-11.926,3.737Z" transform="translate(-407.872 -279.244)" opacity="0.25"/>
    <path id="Path_243" data-name="Path 243" d="M786.5,654.334c.461,3.421,7.987,12.508,7.987,12.508s4.86-10.751,4.4-14.172a6.249,6.249,0,0,0-12.387,1.664Z" transform="translate(-391.45 -293.538)" opacity="0.25"/>
    <path id="Path_244" data-name="Path 244" d="M786.91,639.923s2.833-29.219,19.717-44.756A44.479,44.479,0,0,0,820.39,570.63,74.365,74.365,0,0,0,821.623,557" transform="translate(-391.648 -255.259)" fill="none" stroke="#535461" stroke-miterlimit="10" stroke-width="2"/>
    <path id="Path_245" data-name="Path 245" d="M856.712,533.49c-1.29,3.2-10.826,10.147-10.826,10.147s-2.05-11.621-.76-14.817a6.248,6.248,0,1,1,11.586,4.67Z" transform="translate(-416.159 -241.584)" fill="#6c63ff"/>
    <path id="Path_246" data-name="Path 246" d="M859.034,569.042c-2.822,1.987-14.6,2.632-14.6,2.632s4.607-10.866,7.411-12.853a6.249,6.249,0,0,1,7.193,10.221Z" transform="translate(-416.045 -255.548)" fill="#6c63ff"/>
    <path id="Path_247" data-name="Path 247" d="M837.6,620.539c-3.455.288-13.936-5.1-13.936-5.1s9.45-7.06,12.865-7.354a6.25,6.25,0,0,1,1.048,12.456Z" transform="translate(-407.235 -276.916)" fill="#6c63ff"/>
    <path id="Path_248" data-name="Path 248" d="M811.6,656.52c-3.34.864-14.592-2.672-14.592-2.672s8.114-8.563,11.454-9.427a6.247,6.247,0,1,1,3.139,12.094Z" transform="translate(-395.932 -292.252)" fill="#6c63ff"/>
    <path id="Path_249" data-name="Path 249" d="M822.474,568.083c1.394,3.156,11.16,9.79,11.16,9.79s1.664-11.678.265-14.834a6.247,6.247,0,1,0-11.426,5.057Z" transform="translate(-406.505 -256.241)" fill="#6c63ff"/>
    <path id="Path_250" data-name="Path 250" d="M792.425,609.211C794.7,611.8,806,615.2,806,615.2s-1.906-11.644-4.186-14.235a6.248,6.248,0,1,0-9.387,8.247Z" transform="translate(-393.328 -273.005)" fill="#6c63ff"/>
    <path id="Path_251" data-name="Path 251" d="M770.044,654.858c1.808,2.943,12.369,8.194,12.369,8.194s.086-11.794-1.728-14.736a6.248,6.248,0,1,0-10.648,6.542Z" transform="translate(-384.1 -292.727)" fill="#6c63ff"/>
    <ellipse id="Ellipse_136" data-name="Ellipse 136" cx="68.458" cy="11.477" rx="68.458" ry="11.477" transform="translate(147.01 457.297)" fill="#6c63ff" opacity="0.1"/>
    <ellipse id="Ellipse_137" data-name="Ellipse 137" cx="68.458" cy="11.477" rx="68.458" ry="11.477" transform="translate(281.755 369.197)" fill="#6c63ff" opacity="0.1"/>
    <path id="Path_252" data-name="Path 252" d="M608.318,397.776l-.063,2.24-3.893,137.353H597.82l3.208-137.353.063-2.586Z" transform="translate(-253.562 -168.569)" fill="#b77b7f"/>
    <path id="Path_253" data-name="Path 253" d="M621.723,595.272l-4.9-.012-72.811-.156-3.881-.006,2.067-6.369H621.2Z" transform="translate(-229.093 -249.708)" fill="#dda2a6"/>
    <path id="Path_254" data-name="Path 254" d="M610.68,397.776l-.063,2.24H603.39l.063-2.586Z" transform="translate(-255.924 -168.569)" opacity="0.1"/>
    <rect id="Rectangle_187" data-name="Rectangle 187" width="12.133" height="4.567" transform="translate(345.381 225.849)" fill="#b77b7f"/>
    <path id="Path_255" data-name="Path 255" d="M544.656,588.73l-.645,6.375-3.881-.006,2.067-6.369Z" transform="translate(-229.093 -249.708)" opacity="0.1"/>
    <path id="Path_256" data-name="Path 256" d="M548.644,392.05l-.2,1.981-16.153,159.3-7.4-.351,17.022-158.954.19-1.808Z" transform="translate(-222.629 -166.287)" fill="#dda2a6"/>
    <path id="Path_257" data-name="Path 257" d="M677.723,595.272l-4.9-.012-.662-6.53H677.2Z" transform="translate(-285.092 -249.708)" opacity="0.1"/>
    <path id="Path_258" data-name="Path 258" d="M677.774,552.984l-7.406.351-16.147-159.3-.2-1.981,6.536.173.19,1.808Z" transform="translate(-277.399 -166.287)" fill="#dda2a6"/>
    <rect id="Rectangle_188" data-name="Rectangle 188" width="163.175" height="156.46" transform="translate(268.695 68.698)" fill="#fff"/>
    <path id="Path_259" data-name="Path 259" d="M709.641,58.995V96.777h-6.363V58.995a3.185,3.185,0,1,1,6.363,0Z" transform="translate(-356.175 -42.625)" fill="#dda2a6"/>
    <rect id="Rectangle_189" data-name="Rectangle 189" width="6.369" height="3.438" transform="translate(347.097 50.714)" opacity="0.1"/>
    <path id="Path_260" data-name="Path 260" d="M710.327,124.419v12.473H699V124.419a1.543,1.543,0,0,1,1.549-1.549h8.241a1.549,1.549,0,0,1,1.537,1.549Z" transform="translate(-354.362 -71.125)" fill="#dda2a6"/>
    <circle id="Ellipse_138" data-name="Ellipse 138" cx="2.407" cy="2.407" r="2.407" transform="translate(347.875 57.256)" opacity="0.1"/>
    <circle id="Ellipse_139" data-name="Ellipse 139" cx="2.407" cy="2.407" r="2.407" transform="translate(347.875 56.738)" fill="#b77b7f"/>
    <rect id="Rectangle_190" data-name="Rectangle 190" width="11.362" height="1.549" transform="translate(344.604 64.224)" opacity="0.1"/>
    <rect id="Rectangle_191" data-name="Rectangle 191" width="20.656" height="3.444" transform="translate(339.957 66.291)" opacity="0.1"/>
    <rect id="Rectangle_192" data-name="Rectangle 192" width="20.656" height="3.444" transform="translate(339.957 65.255)" fill="#dda2a6"/>
    <path id="Path_261" data-name="Path 261" d="M532.963,384h86.753a3.743,3.743,0,0,1,3.743,3.743v.818H529.22v-.818A3.743,3.743,0,0,1,532.963,384Z" transform="translate(-224.465 -162.873)" opacity="0.1"/>
    <path id="Path_262" data-name="Path 262" d="M554.64,392.223l6.542-.173-.2,1.981h-6.53Z" transform="translate(-235.167 -166.287)" opacity="0.1"/>
    <rect id="Rectangle_193" data-name="Rectangle 193" width="12.133" height="1.895" transform="translate(345.381 225.849)" opacity="0.1"/>
    <path id="Path_263" data-name="Path 263" d="M660.746,394.031h-6.524l-.2-1.981,6.536.173Z" transform="translate(-277.399 -166.287)" opacity="0.1"/>
    <path id="Path_264" data-name="Path 264" d="M532.963,385.77h86.753a3.743,3.743,0,0,1,3.743,3.743v.818H529.22v-.818A3.743,3.743,0,0,1,532.963,385.77Z" transform="translate(-224.465 -163.623)" fill="#dda2a6"/>
    <path id="Path_265" data-name="Path 265" d="M510.807,241.226c-1.307-.691-15.548-11.448-15.548-11.448L472.276,215.2s-.121-.346-.34-.939c6.306-7.158,4.929-17.546-1.486-24.848-7.774-8.857-42.9-27.923-53.486-11.615-1.48,2.3-1.532,4.918-1.918,7.452a30.949,30.949,0,0,1-8.39,16.469c-3.524,3.726-8.148,7.158-10.175,11.373a.683.683,0,0,0-.058-.161,10.572,10.572,0,0,0-1.054,2.879c-1.008,5.142,2.447,10.072,4.284,15.076a27.355,27.355,0,0,1,1.336,5.229c.046-.357.086-.708.127-1.065a33.434,33.434,0,0,1,.455,7.693c-12.755,2.6-12.761,24.416-12.761,24.416s-1.572,8.672-1.307,11.8.259,9.887.259,11.517-1.572,11.794-1.728,13.014a.294.294,0,0,1,0,.052c-.23,1.336-2.62,7.774,3.156,9.214.4.1.829.19,1.273.271.248,5.211.7,16.124.3,18.554,0,0,2.1,14.661,3.847,18.387a42.291,42.291,0,0,0,3.858,6.231,6.864,6.864,0,0,1-.887,2.528c-.893,1.284-.432,2.338,1.06,2.793-.052.443-.109.944-.173,1.509-.639,5.655-1.6,16.9.029,22.591,2.229,7.809,2.361,10.411,2.361,10.411a7.592,7.592,0,0,0,.921,3.639c.921,1.3,2.62,13.406,2.62,15.358s4.457,19.516,3.144,23.679-.259,10.02-.259,10.02-.789,10.279-1.728,12.49-1.313,37.863.127,47.1,2.361,16.913,2.361,16.913-.916,8.459-.132,9.628,2.229,8.2,1.181,8.586-1.572,3.254-1.572,3.254a29.032,29.032,0,0,0,1.791,2.436,9.8,9.8,0,0,1-1.18-.5c.415.576,1.036,1.394,1.8,2.3l-.72,9.358a1.566,1.566,0,0,0,1.152,1.641,13.17,13.17,0,0,0,13.026-3.662c6.553-6.634,8.782-5.724,9.962-9.755.127-.432.236-.858.328-1.261a4.25,4.25,0,0,0-6.029-4.734,30.5,30.5,0,0,0,.432-7.9c-.656-3.772-.524-13.659-.524-13.659l-.916-47.364s1.7-9.369,3.668-13.009,1.728-16.395,1.728-16.395l2.229-41.9,2.1-20.426s2.1-7.025,4.716.783c0,0-1.44,15.738-.783,19.516s1.572,22.119.916,26.15-3.536,26.155-1.728,31.747,3.824,12.369,3.421,14.586-1.728,50.22-1.728,50.22,3.542,9.214.921,12.231-.132,14.972-.132,14.972.317.225.858.536l-.075,1-.823,10.763a1.578,1.578,0,0,0,1.152,1.647,13.164,13.164,0,0,0,13.026-3.662c6.553-6.64,8.782-5.724,9.962-9.761.127-.432.236-.852.334-1.261a4.259,4.259,0,0,0-6.864-4.2l-.155.132a5.431,5.431,0,0,1-.513.386,2.484,2.484,0,0,1-.259.167c.656-2.971,1.612-8.062,1.152-10.446-.656-3.513.651-14.178.651-14.178s3.8-12.755,3.933-17.852l1.048-40.592s-.127-16.527.4-20.558,4.716-38.9,8.908-49.316c3.219-7.97,4.659-28.309,3.806-38.623-.046-.507-.092-1-.15-1.451a15.207,15.207,0,0,0,5.655-10.106s-4.722-9.018-9.266-12.836-5.522-10.383-5.361-13.176A6.842,6.842,0,0,0,467.814,314s-2.1-6.766-3.5-7.457a1.094,1.094,0,0,1-.305-.23c-.95-1.019-.219-3.933-.219-3.933v-.092c.167-.674,1.152-5.039.858-6.156-.351-1.209.173-6.939.173-6.939s3.323-9.887,2.8-17.7,6.818-7.112,6.818-7.112l22.671-.236h2.58a18.159,18.159,0,0,0,2.482-2.568c4.319-.512,13.055-2.142,14.034-6.91C517.539,248.344,512.12,241.923,510.807,241.226ZM405.771,313.415l.155-3.968c.536.461.893.754.893.754a6.208,6.208,0,0,1,.04,3.179,3.392,3.392,0,0,1-1.964,2.2,2.38,2.38,0,0,0-.317.167l-.219-2.24ZM488,243.737c-.962-.432-4.2-.346-5.862-.346A13.041,13.041,0,0,1,477.776,242c-.576-1.123-3.76-1.791-6.594-2.171-2.154-5.309-5.183-10.486-5.592-16.02a4.254,4.254,0,0,0-.029-.6l.328.576s13.2,8.419,14.684,10.941c1.152,1.923,6.7,6.219,9.266,8.143a2.643,2.643,0,0,1-1.411.944.777.777,0,0,1-.426-.075Z" transform="translate(-221.33 -91.718)" fill="url(#linear-gradient)"/>
    <path id="Path_266" data-name="Path 266" d="M508.01,827.447c-.1.4-.2.823-.328,1.25-1.152,4.031-3.357,3.1-9.79,9.68a12.888,12.888,0,0,1-12.824,3.639,1.555,1.555,0,0,1-1.152-1.635l.812-10.676.386-5.137s10.273,2.879,15.5-.777a6.18,6.18,0,0,0,.507-.386,1.6,1.6,0,0,0,.115-.115,4.2,4.2,0,0,1,6.772,4.158Z" transform="translate(-263.133 -367.795)" fill="#67647e"/>
    <path id="Path_267" data-name="Path 267" d="M452.01,820.447c-.1.4-.2.823-.328,1.25-1.152,4.031-3.357,3.1-9.79,9.68a12.888,12.888,0,0,1-12.824,3.639,1.555,1.555,0,0,1-1.152-1.635l.812-10.676.386-5.137s10.273,2.879,15.5-.777a6.208,6.208,0,0,0,.507-.386,1.6,1.6,0,0,0,.115-.115,4.2,4.2,0,0,1,6.772,4.158Z" transform="translate(-239.381 -364.826)" fill="#67647e"/>
    <path id="Path_268" data-name="Path 268" d="M440.608,826.847l.415,5.551c-5.9,5.891-12.916-2.879-14.972-5.759C431.457,829.427,440.608,826.847,440.608,826.847Z" transform="translate(-238.592 -369.625)" opacity="0.1"/>
    <path id="Path_269" data-name="Path 269" d="M500.395,828.354l.772-.512c-5.384,8.189-13.383,4.411-15.876,2.943l.386-5.137s10.273,2.879,15.5-.777C500.769,826.874,500.395,828.354,500.395,828.354Z" transform="translate(-263.718 -368.874)" opacity="0.1"/>
    <path id="Path_270" data-name="Path 270" d="M484.05,528.78c-4.135,10.325-8.264,44.917-8.782,48.948s-.386,20.4-.386,20.4l-1.037,40.247c-.132,5.039-3.875,17.69-3.875,17.69s-1.29,10.584-.645,14.068S467.65,682.8,467.65,682.8l.772-.518c-6.455,9.79-16.654,2.453-16.654,2.453s-2.453-11.874.132-14.846-.9-12.133-.9-12.133,1.29-47.635,1.676-49.829-1.549-8.908-3.357-14.46,1.037-27.5,1.682-31.5-.259-22.205-.9-25.948.772-19.366.772-19.366c-2.58-7.745-4.647-.772-4.647-.772l-2.067,20.264-2.194,41.571s.259,12.669-1.676,16.268-3.616,12.9-3.616,12.9l.9,47s-.127,9.79.518,13.55-1.422,13.429-1.422,13.429c-7.227,17.028-18.836-1.434-18.836-1.434s.518-2.839,1.549-3.225-.386-7.359-1.152-8.523.127-9.553.127-9.553-.9-7.613-2.3-16.78-1.031-44.537-.127-46.731,1.676-12.392,1.676-12.392-1.031-5.81.259-9.945-3.1-21.554-3.1-23.495-1.676-13.941-2.58-15.231a7.616,7.616,0,0,1-.9-3.616s-.127-2.58-2.3-10.325c-1.6-5.655-.656-16.8-.029-22.418.225-2.079.42-3.4.42-3.4s74.038-12.007,76.992-9.294c.691.639,1.152,2.833,1.422,5.96C488.657,500.684,487.206,520.9,484.05,528.78Z" transform="translate(-230.973 -224.337)" fill="#444053"/>
    <path id="Path_271" data-name="Path 271" d="M491.34,662.338c.346,0,8.523.691,11.517.086S491.34,662.338,491.34,662.338Z" transform="translate(-266.284 -299.849)" opacity="0.1"/>
    <path id="Path_272" data-name="Path 272" d="M492.39,670.859s11.293,1.981,11.868.95S492.39,670.859,492.39,670.859Z" transform="translate(-266.729 -303.551)" opacity="0.1"/>
    <path id="Path_273" data-name="Path 273" d="M432.46,667.27s5.851.259,9.035,1.728S432.46,667.27,432.46,667.27Z" transform="translate(-241.31 -302.029)" opacity="0.1"/>
    <path id="Path_274" data-name="Path 274" d="M395.54,415.773s.944,17.984.432,21.169c0,0,2.062,14.546,3.783,18.243a52.732,52.732,0,0,0,5.425,8.35l5.079-35.7L409.05,415.6Z" transform="translate(-225.651 -195.285)" fill="#efb7b9"/>
    <circle id="Ellipse_140" data-name="Ellipse 140" cx="19.879" cy="19.879" r="19.879" transform="translate(203.369 98.798)" fill="#efb7b9"/>
    <path id="Path_275" data-name="Path 275" d="M460.7,254.722s-6.2,12.139-12.392,17.817,37.177,12.133,38.208,12.133-7.745-25.816-6.2-28.931S460.7,254.722,460.7,254.722Z" transform="translate(-247.774 -126.757)" fill="#efb7b9"/>
    <path id="Path_276" data-name="Path 276" d="M488.353,490.456a12.917,12.917,0,0,1-3.19,1.785c-7.912,3.1-16.521,7.4-22.372,5.684s-18.243,0-18.243,0-24.963-2.067-29.945-.864a9.758,9.758,0,0,1-5.183.132c.225-2.079.42-3.4.42-3.4s74.124-12.007,77.078-9.294C487.621,485.135,488.07,487.329,488.353,490.456Z" transform="translate(-231.538 -224.337)" opacity="0.1"/>
    <path id="Path_277" data-name="Path 277" d="M486.807,392.308s-.685,8.609-8.609,11.707-16.521,7.4-22.372,5.684-18.243,0-18.243,0-24.963-2.067-29.945-.864-7.578-.34-6.029-2.58,1.382-9.64,1.382-12.738-1.728-15.663-.178-17.9,2.925-10.843,6.023-12.225a3.375,3.375,0,0,0,1.935-2.182,6.242,6.242,0,0,0-.04-3.15s-.524-.432-1.244-1.071c-1.825-1.63-4.912-4.653-3.922-5.643,1.376-1.382,0-10.331,0-10.331s-3.271-6.882-2.062-9.461S393,315.368,393,315.368s0-23.4,14.114-24.439c0,0,9.985.346,11.189-4.129s9.122-7.06,9.122-7.06L445.5,283.7s16,3.455,18.934,1.376,5.183,2.753,5.183,2.753,9.98.518,11.01,2.586-3.265,22.2-3.265,22.2-7.233-.685-6.715,7.06-2.787,17.558-2.787,17.558-.518,5.678-.173,6.882c.322,1.111-.68,5.442-.841,6.11v.086s-.72,2.879.213,3.9a1.152,1.152,0,0,0,.3.23c1.382.685,3.455,7.4,3.455,7.4a6.813,6.813,0,0,1,1.549,4.647c-.167,2.758.864,9.294,5.338,13.083S486.807,392.308,486.807,392.308Z" transform="translate(-224.574 -137.66)" fill="#a36468"/>
    <path id="Path_278" data-name="Path 278" d="M407.509,377.68v.731l-.311,8.062s-10.59.858-16.354-.576-3.34-7.832-3.11-9.156a.213.213,0,0,0,0-.052c.167-1.209,1.728-11.275,1.728-12.911s0-8.35-.259-11.448,1.267-11.73,1.267-11.73l1.117-1.371,12.128,4.647Z" transform="translate(-222.043 -162.893)" fill="#a36468"/>
    <path id="Path_279" data-name="Path 279" d="M407.459,406.07l-.311,8.062s-10.59.858-16.354-.576-3.34-7.832-3.11-9.156Z" transform="translate(-222.022 -190.534)" opacity="0.1"/>
    <path id="Path_280" data-name="Path 280" d="M422.914,413.127a6.242,6.242,0,0,0-.04-3.15s-.524-.432-1.244-1.071c9.116-1.273,45.216-6.225,57.373-6.766v.086s-.72,2.879.213,3.9Z" transform="translate(-236.717 -189.576)" opacity="0.1"/>
    <path id="Path_281" data-name="Path 281" d="M519.12,432s2.24,12.669-6.11,17.126C513,449.149,517.744,442.866,519.12,432Z" transform="translate(-275.475 -202.241)" opacity="0.1"/>
    <path id="Path_282" data-name="Path 282" d="M428.72,461.05s20.155-3.455,24.1-.772S428.72,461.05,428.72,461.05Z" transform="translate(-239.724 -213.802)" opacity="0.1"/>
    <path id="Path_283" data-name="Path 283" d="M510.312,326.22s-3.1,12.738-.777,15.663S510.312,326.22,510.312,326.22Z" transform="translate(-273.635 -157.375)" opacity="0.1"/>
    <path id="Path_284" data-name="Path 284" d="M410.114,308.14s2.839,4.734,1.117,9.64S410.114,308.14,410.114,308.14Z" transform="translate(-231.789 -149.706)" opacity="0.1"/>
    <path id="Path_285" data-name="Path 285" d="M400,380.18s3.616,2.148,2.413,5.505S400,380.18,400,380.18Z" transform="translate(-227.543 -180.261)" opacity="0.1"/>
    <path id="Path_286" data-name="Path 286" d="M399.43,363.14s3.352,1.808,3.783,4.474S399.43,363.14,399.43,363.14Z" transform="translate(-227.301 -173.034)" opacity="0.1"/>
    <path id="Path_287" data-name="Path 287" d="M485.81,539.789s21.088,2.154,25.3-2.839C511.113,536.979,492.093,540.739,485.81,539.789Z" transform="translate(-263.938 -246.755)" opacity="0.1"/>
    <path id="Path_288" data-name="Path 288" d="M422.59,539.79s22.637,5.338,27.111,1.117C449.7,540.907,430.249,542.37,422.59,539.79Z" transform="translate(-237.124 -247.959)" opacity="0.1"/>
    <path id="Path_289" data-name="Path 289" d="M488.65,554s9.467,0,13.855.259S488.65,554,488.65,554Z" transform="translate(-265.143 -253.986)" opacity="0.1"/>
    <path id="Path_290" data-name="Path 290" d="M425.28,561s4.647,5.252,9.9,4.307S425.28,561,425.28,561Z" transform="translate(-238.265 -256.955)" opacity="0.1"/>
    <path id="Path_291" data-name="Path 291" d="M425.522,182.99c-1.457,2.263-1.509,4.883-1.889,7.394a30.812,30.812,0,0,1-8.258,16.343c-4.129,4.388-9.79,8.367-10.861,13.728-1.013,5.091,2.424,9.991,4.227,14.972,4.751,13.066-1.883,26.772-3.818,40.258-.536,3.726.109,8.488,4.7,9.726,1.434.392,3.075.34,4.365.962,1.728.829,2.257,2.551,2.574,4.1a62.665,62.665,0,0,1,1.186,16.861c-.207,3.167-.438,6.812,2.557,8.989a15.122,15.122,0,0,0,4.958,1.981c4.716,1.273,10.815,2.3,13.993-.685,1.336-1.25,1.837-3.012,3.5-4,2.493-1.48,6.029-.478,9.168-.322a16.648,16.648,0,0,0,14.9-8.01c2.54-4.555,2.3-9.79,1.382-14.7s-2.568-9.79-2.683-14.776a8.58,8.58,0,0,1,1.106-5.016c1.918-2.966,6.38-4.313,9.432-6.645,5.718-4.377,5.7-11.546,3.622-17.546s-5.81-11.753-6.271-17.955a6.835,6.835,0,0,1,.846-4.336,17.6,17.6,0,0,1,3.455-3.248c8.344-7.048,7.359-18.623.461-26.547C470.543,185.731,435.945,166.814,425.522,182.99Z" transform="translate(-229.38 -93.941)" fill="#e3787d"/>
    <g id="Group_188" data-name="Group 188" transform="translate(174.693 109.4)" opacity="0.1">
      <path id="Path_292" data-name="Path 292" d="M409.61,271.185a32.789,32.789,0,0,0-1.319-15.519c-.91-2.5-2.229-4.981-3.19-7.486a10.8,10.8,0,0,0-1.037,2.879c-1.013,5.091,2.424,9.991,4.227,14.972A27.226,27.226,0,0,1,409.61,271.185Z" transform="translate(-403.882 -233.674)"/>
      <path id="Path_293" data-name="Path 293" d="M417.6,367.456a62.9,62.9,0,0,0-1.181-16.861c-.322-1.549-.852-3.265-2.58-4.094-1.29-.622-2.931-.576-4.365-.962a5.949,5.949,0,0,1-4.031-3.328c-.265,1.313-.5,2.62-.685,3.933-.536,3.726.109,8.488,4.7,9.726,1.434.386,3.075.334,4.365.956,1.728.829,2.257,2.551,2.58,4.1a63.82,63.82,0,0,1,1.106,7.786C417.553,368.285,417.576,367.87,417.6,367.456Z" transform="translate(-404.188 -273.556)"/>
      <path id="Path_294" data-name="Path 294" d="M476.185,379.679a16.629,16.629,0,0,1-14.909,8.01c-3.138-.161-6.674-1.152-9.162.323-1.664.985-2.171,2.753-3.507,4-3.179,2.966-9.277,1.958-13.993.685a15.3,15.3,0,0,1-4.958-1.981,6.219,6.219,0,0,1-2.447-3.973c.035,1.768,0,3.542-.109,5.309-.207,3.167-.438,6.812,2.557,8.995a15.292,15.292,0,0,0,4.958,1.975c4.716,1.273,10.815,2.3,13.993-.685,1.336-1.25,1.843-3.012,3.507-4.031,2.488-1.48,6.023-.478,9.162-.322a16.664,16.664,0,0,0,14.909-8.01c2.442-4.4,2.332-9.375,1.48-14.126a15.473,15.473,0,0,1-1.48,3.829Z" transform="translate(-413.683 -287.825)"/>
      <path id="Path_295" data-name="Path 295" d="M528.145,230.643a16.25,16.25,0,0,0-3.455,3.248,6.835,6.835,0,0,0-.846,4.336,23.068,23.068,0,0,0,1.186,5.528,22.993,22.993,0,0,1,3.138-2.787c5.643-4.762,7.014-11.6,5.183-17.978A16.435,16.435,0,0,1,528.145,230.643Z" transform="translate(-454.736 -222.99)"/>
      <path id="Path_296" data-name="Path 296" d="M520.684,306.906c-3.046,2.332-7.515,3.685-9.427,6.651a8.551,8.551,0,0,0-1.111,5.01,34.588,34.588,0,0,0,.737,5.989,5.536,5.536,0,0,1,.374-.674c1.912-2.966,6.38-4.313,9.427-6.645,5.223-4,5.661-10.319,4.117-15.957A11.955,11.955,0,0,1,520.684,306.906Z" transform="translate(-448.951 -256.196)"/>
    </g>
    <path id="Path_297" data-name="Path 297" d="M552.778,282.176s14.892-.772,16.182-7.054-4.031-12.669-5.332-13.343-15.341-11.362-15.341-11.362l-22.631-14.454s-10.843-31.1-13.245-19.193,6.974,27.71,6.974,27.71,12.991,8.35,14.454,10.843,10.417,9.035,10.417,9.035Z" transform="translate(-275.054 -109.801)" fill="#efb7b9"/>
    <path id="Path_298" data-name="Path 298" d="M570.53,307.673c-3.524,8.955-8.091,12.485-8.091,12.485H559.9l-22.326.23L535,313.357l3.616-15.237,2.234.092a12.888,12.888,0,0,0,4.3,1.376c1.63,0,4.826-.086,5.758.34a.708.708,0,0,0,.42.063c.846-.086,1.728-1.353,1.728-1.353S574.06,298.725,570.53,307.673Z" transform="translate(-284.802 -145.456)" fill="#a36468"/>
    <path id="Path_299" data-name="Path 299" d="M582.538,308.038c-3.524,8.955-8.091,12.485-8.091,12.485h-2.539c1.324-3.547,4.117-10.826,5.183-12.508,1.042-1.589-8.31-5.545-13.78-7.682.846-.086,1.728-1.353,1.728-1.353S586.068,299.089,582.538,308.038Z" transform="translate(-296.81 -145.821)" opacity="0.1"/>
    <ellipse id="Ellipse_141" data-name="Ellipse 141" cx="25.441" cy="4.975" rx="25.441" ry="4.975" transform="translate(26.858 434.482)" fill="#6c63ff" opacity="0.1"/>
    <ellipse id="Ellipse_142" data-name="Ellipse 142" cx="18.531" cy="3.622" rx="18.531" ry="3.622" transform="translate(457.863 403.017)" fill="#6c63ff" opacity="0.1"/>
    <ellipse id="Ellipse_143" data-name="Ellipse 143" cx="18.531" cy="3.622" rx="18.531" ry="3.622" transform="translate(538.189 417.696)" fill="#6c63ff" opacity="0.1"/>
    <ellipse id="Ellipse_144" data-name="Ellipse 144" cx="18.531" cy="3.622" rx="18.531" ry="3.622" transform="translate(413.81 447.928)" fill="#6c63ff" opacity="0.1"/>
    <path id="Path_300" data-name="Path 300" d="M224.653,556.31s4.169,5.453-1.923,13.677-11.108,15.168-9.07,20.3c0,0,9.185-15.277,16.665-15.491S232.882,565.5,224.653,556.31Z" transform="translate(-148.312 -254.966)" fill="#6c63ff"/>
    <path id="Path_301" data-name="Path 301" d="M224.823,556.31a6.789,6.789,0,0,1,.852,1.728c7.3,8.575,11.183,16.573,4.169,16.775-6.53.184-14.368,11.868-16.245,14.817a5.439,5.439,0,0,0,.225.674s9.185-15.277,16.665-15.491S233.052,565.5,224.823,556.31Z" transform="translate(-148.482 -254.966)" opacity="0.1"/>
    <path id="Path_302" data-name="Path 302" d="M245.832,567.46c0,1.918-.213,3.455-.478,3.455s-.484-1.555-.484-3.455.271-1.014.536-1.014S245.832,565.52,245.832,567.46Z" transform="translate(-161.745 -259.172)" fill="#ffd037"/>
    <path id="Path_303" data-name="Path 303" d="M248.74,571.376c-1.682.916-3.15,1.474-3.277,1.238s1.152-1.152,2.816-2.085,1.019-.248,1.152,0S250.422,570.455,248.74,571.376Z" transform="translate(-161.993 -260.796)" fill="#ffd037"/>
    <path id="Path_304" data-name="Path 304" d="M187.976,556.31s-4.169,5.453,1.923,13.677,11.108,15.168,9.087,20.3c0,0-9.214-15.277-16.7-15.491S179.747,565.5,187.976,556.31Z" transform="translate(-133.638 -254.966)" fill="#6c63ff"/>
    <path id="Path_305" data-name="Path 305" d="M187.973,556.31a6.79,6.79,0,0,0-.852,1.728c-7.3,8.575-11.183,16.573-4.169,16.775,6.53.184,14.4,11.868,16.245,14.817a6.575,6.575,0,0,1-.219.674s-9.214-15.278-16.7-15.491S179.744,565.5,187.973,556.31Z" transform="translate(-133.635 -254.966)" opacity="0.1"/>
    <path id="Path_306" data-name="Path 306" d="M181.43,567.46c0,1.918.213,3.455.478,3.455s.484-1.555.484-3.455-.271-1.014-.536-1.014S181.43,565.52,181.43,567.46Z" transform="translate(-134.837 -259.172)" fill="#ffd037"/>
    <path id="Path_307" data-name="Path 307" d="M176.053,571.376c1.687.916,3.15,1.474,3.282,1.238s-1.152-1.152-2.822-2.085-1.019-.248-1.152,0S174.372,570.455,176.053,571.376Z" transform="translate(-132.121 -260.796)" fill="#ffd037"/>
    <ellipse id="Ellipse_145" data-name="Ellipse 145" cx="43.564" cy="6.686" rx="43.564" ry="6.686" transform="translate(21.773 363.629)" fill="#6c63ff" opacity="0.1"/>
    <path id="Path_308" data-name="Path 308" d="M219.906,600.681l-.207,1.728-.294,2.4-.121,1-.294,2.407-.127,1-.294,2.4-3.328,27.319c-.3,2.442-4.284,4.342-9.1,4.342H188.856c-4.814,0-8.793-1.9-9.093-4.342l-3.334-27.324-.294-2.4-.121-1-.3-2.407-.121-1-.294-2.4-.207-1.728c-.167-1.382,1.987-2.545,4.711-2.545H215.23C217.92,598.136,220.079,599.3,219.906,600.681Z" transform="translate(-132.146 -272.704)" fill="#65617d"/>
    <path id="Path_309" data-name="Path 309" d="M119.312,572.5l-.288,2.407H75.178L74.89,572.5Z" transform="translate(-31.764 -242.824)" fill="#9d9cb5"/>
    <path id="Path_310" data-name="Path 310" d="M119.2,578.42l-.288,2.4H75.9l-.294-2.4Z" transform="translate(-32.07 -245.335)" fill="#9d9cb5"/>
    <path id="Path_311" data-name="Path 311" d="M119.093,584.33l-.294,2.4H76.624l-.294-2.4Z" transform="translate(-32.375 -247.841)" fill="#9d9cb5"/>
    <circle id="Ellipse_146" data-name="Ellipse 146" cx="18.139" cy="18.139" r="18.139" transform="translate(85.509 53.565)" fill="#6c63ff" opacity="0.1"/>
    <circle id="Ellipse_147" data-name="Ellipse 147" cx="11.229" cy="11.229" r="11.229" transform="translate(54.413 17.286)" fill="#6c63ff" opacity="0.1"/>
    <circle id="Ellipse_148" data-name="Ellipse 148" cx="6.91" cy="6.91" r="6.91" transform="translate(0 46.654)" fill="#6c63ff" opacity="0.1"/>
  </g>
</svg>
